<svg id="Layer_1" data-name="Layer 1" xmlns="http://www.w3.org/2000/svg" xmlns:xlink="http://www.w3.org/1999/xlink" viewBox="0 0 1366 768"><defs><style>.cls-1{fill:url(#Áåçûìÿííûé_ãðàäèåíò_49);}.cls-2{opacity:0.3;}.cls-3{fill:#7979d3;}</style><radialGradient id="Áåçûìÿííûé_ãðàäèåíò_49" cx="328.94" cy="130.77" r="673.94" gradientTransform="translate(-871.96 -272.21) scale(2.28 1.71)" gradientUnits="userSpaceOnUse"><stop offset="0" stop-color="#5cfff3"/><stop offset="0.05" stop-color="#51dad7"/><stop offset="0.12" stop-color="#43a8b0"/><stop offset="0.19" stop-color="#367b8e"/><stop offset="0.27" stop-color="#2b5671"/><stop offset="0.35" stop-color="#22375a"/><stop offset="0.43" stop-color="#1b2048"/><stop offset="0.52" stop-color="#160f3b"/><stop offset="0.61" stop-color="#130533"/><stop offset="0.74" stop-color="#120231"/></radialGradient></defs><rect class="cls-1" width="1366" height="768"/><g id="lines" class="cls-2"><path class="cls-3" d="M349.91,661.23h-1.68V598a55,55,0,0,1,54.92-54.92H785.56v1.68H403.15A53.3,53.3,0,0,0,349.91,598Z"/><path class="cls-3" d="M333.4,625.05h-1.68V596.89a68.54,68.54,0,0,1,68.46-68.46H785.56v1.68H400.18a66.85,66.85,0,0,0-66.78,66.78Z"/><path class="cls-3" d="M315.91,639.56h-1.68v-43a83.93,83.93,0,0,1,83.84-83.84H785.56v1.68H398.07a82.26,82.26,0,0,0-82.16,82.16Z"/><path class="cls-3" d="M302,684h-1.68V591.07A94.21,94.21,0,0,1,394.46,497h391.1v1.68H394.46A92.53,92.53,0,0,0,302,591.07Z"/><path class="cls-3" d="M349.07,668.86a4.49,4.49,0,1,1,4.49-4.49A4.5,4.5,0,0,1,349.07,668.86Zm0-7.3a2.81,2.81,0,1,0,2.81,2.81A2.82,2.82,0,0,0,349.07,661.56Z"/><path class="cls-3" d="M332.56,632.4a4.49,4.49,0,1,1,4.49-4.49A4.5,4.5,0,0,1,332.56,632.4Zm0-7.3a2.81,2.81,0,1,0,2.81,2.81A2.81,2.81,0,0,0,332.56,625.1Z"/><path class="cls-3" d="M315.07,647a4.49,4.49,0,1,1,4.49-4.49A4.49,4.49,0,0,1,315.07,647Zm0-7.3a2.81,2.81,0,1,0,2.81,2.81A2.82,2.82,0,0,0,315.07,639.65Z"/><path class="cls-3" d="M301.19,691.26a4.49,4.49,0,1,1,4.49-4.49A4.5,4.5,0,0,1,301.19,691.26Zm0-7.3a2.81,2.81,0,1,0,2.81,2.81A2.81,2.81,0,0,0,301.19,684Z"/><path class="cls-3" d="M784.71,410.15H402.29a55,55,0,0,1-54.92-54.92V292h1.68v63.2a53.3,53.3,0,0,0,53.24,53.24H784.71Z"/><path class="cls-3" d="M784.71,424.83H399.32a68.53,68.53,0,0,1-68.45-68.46V328.21h1.68v28.16a66.84,66.84,0,0,0,66.77,66.78H784.71Z"/><path class="cls-3" d="M784.71,440.56H397.22a83.94,83.94,0,0,1-83.85-83.84v-43h1.68v43a82.27,82.27,0,0,0,82.17,82.17H784.71Z"/><path class="cls-3" d="M784.71,456.3H393.6a94.21,94.21,0,0,1-94.1-94.11V269.31h1.68v92.88a92.53,92.53,0,0,0,92.42,92.43H784.71Z"/><path class="cls-3" d="M348.21,293.39a4.5,4.5,0,1,1,4.49-4.5A4.5,4.5,0,0,1,348.21,293.39Zm0-7.31a2.82,2.82,0,1,0,2.81,2.81A2.81,2.81,0,0,0,348.21,286.08Z"/><path class="cls-3" d="M331.71,329.84a4.49,4.49,0,1,1,4.49-4.49A4.5,4.5,0,0,1,331.71,329.84Zm0-7.3a2.81,2.81,0,1,0,2.81,2.81A2.81,2.81,0,0,0,331.71,322.54Z"/><path class="cls-3" d="M314.21,315.29a4.49,4.49,0,1,1,4.49-4.49A4.5,4.5,0,0,1,314.21,315.29Zm0-7.3A2.81,2.81,0,1,0,317,310.8,2.81,2.81,0,0,0,314.21,308Z"/><path class="cls-3" d="M300.34,271a4.49,4.49,0,1,1,4.49-4.49A4.5,4.5,0,0,1,300.34,271Zm0-7.3a2.81,2.81,0,1,0,2.81,2.81A2.82,2.82,0,0,0,300.34,263.68Z"/><rect class="cls-3" x="269.06" y="482.69" width="515.29" height="1.68"/><rect class="cls-3" x="225.53" y="468.54" width="560.03" height="1.68"/><path class="cls-3" d="M265.76,488a4.5,4.5,0,1,1,4.5-4.5A4.5,4.5,0,0,1,265.76,488Zm0-7.31a2.82,2.82,0,1,0,2.82,2.81A2.81,2.81,0,0,0,265.76,480.72Z"/><path class="cls-3" d="M222.24,473.87a4.5,4.5,0,1,1,4.49-4.49A4.5,4.5,0,0,1,222.24,473.87Zm0-7.31a2.82,2.82,0,1,0,2.81,2.82A2.82,2.82,0,0,0,222.24,466.56Z"/><path class="cls-3" d="M1178.6,410.15H785v-1.68H1178.6a53.3,53.3,0,0,0,53.24-53.24V292h1.68v63.2A55,55,0,0,1,1178.6,410.15Z"/><path class="cls-3" d="M1181.57,424.83H785v-1.68h396.62a66.85,66.85,0,0,0,66.78-66.78V328.21H1250v28.16A68.54,68.54,0,0,1,1181.57,424.83Z"/><path class="cls-3" d="M1183.68,440.56H785v-1.67h398.73a82.27,82.27,0,0,0,82.16-82.17v-43h1.68v43A83.93,83.93,0,0,1,1183.68,440.56Z"/><path class="cls-3" d="M1187.29,456.3H785v-1.68h402.34a92.54,92.54,0,0,0,92.43-92.43V269.31h1.68v92.88A94.22,94.22,0,0,1,1187.29,456.3Z"/><path class="cls-3" d="M1232.68,293.39a4.5,4.5,0,1,1,4.49-4.5A4.5,4.5,0,0,1,1232.68,293.39Zm0-7.31a2.82,2.82,0,1,0,2.82,2.81A2.81,2.81,0,0,0,1232.68,286.08Z"/><path class="cls-3" d="M1249.19,329.84a4.49,4.49,0,1,1,4.49-4.49A4.5,4.5,0,0,1,1249.19,329.84Zm0-7.3a2.81,2.81,0,1,0,2.81,2.81A2.81,2.81,0,0,0,1249.19,322.54Z"/><path class="cls-3" d="M1266.68,315.29a4.49,4.49,0,1,1,4.49-4.49A4.5,4.5,0,0,1,1266.68,315.29Zm0-7.3a2.81,2.81,0,1,0,2.81,2.81A2.81,2.81,0,0,0,1266.68,308Z"/><path class="cls-3" d="M1280.56,271a4.49,4.49,0,1,1,4.49-4.49A4.49,4.49,0,0,1,1280.56,271Zm0-7.3a2.81,2.81,0,1,0,2.81,2.81A2.81,2.81,0,0,0,1280.56,263.68Z"/><path class="cls-3" d="M1234.38,661.23h-1.68V598a53.3,53.3,0,0,0-53.24-53.24H785.81v-1.68h393.65A55,55,0,0,1,1234.38,598Z"/><path class="cls-3" d="M1250.88,625.05h-1.68V596.89a66.84,66.84,0,0,0-66.77-66.78H785.81v-1.68h396.62a68.53,68.53,0,0,1,68.45,68.46Z"/><path class="cls-3" d="M1268.37,639.56h-1.68v-43a82.25,82.25,0,0,0-82.16-82.16H785.81V512.7h398.72a83.93,83.93,0,0,1,83.84,83.84Z"/><path class="cls-3" d="M1282.25,684h-1.68V591.07a92.53,92.53,0,0,0-92.42-92.42H785.81V497h402.34a94.2,94.2,0,0,1,94.1,94.1Z"/><path class="cls-3" d="M1233.54,668.86a4.49,4.49,0,1,1,4.49-4.49A4.5,4.5,0,0,1,1233.54,668.86Zm0-7.3a2.81,2.81,0,1,0,2.81,2.81A2.82,2.82,0,0,0,1233.54,661.56Z"/><path class="cls-3" d="M1250,632.4a4.49,4.49,0,1,1,4.5-4.49A4.5,4.5,0,0,1,1250,632.4Zm0-7.3a2.81,2.81,0,1,0,2.82,2.81A2.81,2.81,0,0,0,1250,625.1Z"/><path class="cls-3" d="M1267.53,647a4.49,4.49,0,1,1,4.5-4.49A4.5,4.5,0,0,1,1267.53,647Zm0-7.3a2.81,2.81,0,1,0,2.82,2.81A2.81,2.81,0,0,0,1267.53,639.65Z"/><path class="cls-3" d="M1281.41,691.26a4.49,4.49,0,1,1,4.5-4.49A4.5,4.5,0,0,1,1281.41,691.26Zm0-7.3a2.81,2.81,0,1,0,2.82,2.81A2.81,2.81,0,0,0,1281.41,684Z"/><rect class="cls-3" x="786.17" y="468.89" width="526.52" height="1.68"/><rect class="cls-3" x="784.95" y="483.05" width="571.26" height="1.68"/><path class="cls-3" d="M1316,474.22a4.49,4.49,0,1,1,4.49-4.49A4.5,4.5,0,0,1,1316,474.22Zm0-7.3a2.81,2.81,0,1,0,2.81,2.81A2.82,2.82,0,0,0,1316,466.92Z"/><path class="cls-3" d="M1359.51,488.38a4.5,4.5,0,1,1,4.49-4.49A4.5,4.5,0,0,1,1359.51,488.38Zm0-7.31a2.82,2.82,0,1,0,2.81,2.82A2.82,2.82,0,0,0,1359.51,481.07Z"/></g></svg>