<svg xmlns="http://www.w3.org/2000/svg" xmlns:xlink="http://www.w3.org/1999/xlink" viewBox="0 0 1366 768"><defs><style>.cls-1{isolation:isolate;}.cls-2{fill:url(#Áåçûìÿííûé_ãðàäèåíò_49);}.cls-25,.cls-3,.cls-6{opacity:0.3;}.cls-4{fill:#7979d3;}.cls-5,.cls-87,.cls-88{fill:#fccc6b;}.cls-39,.cls-6{fill:#0b0244;}.cls-7{fill:#312a91;}.cls-12,.cls-15,.cls-16,.cls-26,.cls-37,.cls-55,.cls-71,.cls-73,.cls-75,.cls-76,.cls-77,.cls-79,.cls-8,.cls-80,.cls-81,.cls-82,.cls-84,.cls-85,.cls-86{opacity:0.5;}.cls-10,.cls-13,.cls-22,.cls-24,.cls-27,.cls-29,.cls-30,.cls-31,.cls-33,.cls-34,.cls-43,.cls-45,.cls-46,.cls-48,.cls-49,.cls-50,.cls-52,.cls-53,.cls-59,.cls-61,.cls-62,.cls-64,.cls-65,.cls-66,.cls-68,.cls-69,.cls-70,.cls-8{mix-blend-mode:lighten;}.cls-8{fill:url(#Áåçûìÿííûé_ãðàäèåíò_73);}.cls-9{fill:url(#Áåçûìÿííûé_ãðàäèåíò_28);}.cls-10,.cls-13,.cls-22,.cls-24,.cls-27,.cls-29,.cls-31,.cls-33,.cls-43,.cls-45,.cls-46,.cls-48,.cls-50,.cls-52,.cls-59,.cls-61,.cls-62,.cls-64,.cls-66,.cls-68{opacity:0.7;}.cls-10{fill:url(#Áåçûìÿííûé_ãðàäèåíò_3);}.cls-11{opacity:0.4;}.cls-12{fill:url(#Áåçûìÿííûé_ãðàäèåíò_28-2);}.cls-13{fill:url(#Áåçûìÿííûé_ãðàäèåíò_28-3);}.cls-14{fill:#180d5b;}.cls-15{fill:url(#Áåçûìÿííûé_ãðàäèåíò_28-4);}.cls-16{fill:url(#Áåçûìÿííûé_ãðàäèåíò_28-5);}.cls-17,.cls-18{opacity:0.9;}.cls-17{fill:url(#Áåçûìÿííûé_ãðàäèåíò_28-6);}.cls-19{fill:url(#Áåçûìÿííûé_ãðàäèåíò_3-2);}.cls-20{fill:url(#Áåçûìÿííûé_ãðàäèåíò_3-3);}.cls-21{fill:url(#Áåçûìÿííûé_ãðàäèåíò_3-4);}.cls-22{fill:url(#Áåçûìÿííûé_ãðàäèåíò_3-5);}.cls-23{fill:url(#Áåçûìÿííûé_ãðàäèåíò_59);}.cls-24{fill:url(#Áåçûìÿííûé_ãðàäèåíò_122);}.cls-25,.cls-35,.cls-37{fill:#42e8e0;}.cls-26,.cls-74{fill:#5cfff3;}.cls-27{fill:url(#Áåçûìÿííûé_ãðàäèåíò_3-6);}.cls-28{fill:url(#Áåçûìÿííûé_ãðàäèåíò_59-2);}.cls-29{fill:url(#Áåçûìÿííûé_ãðàäèåíò_122-2);}.cls-30{fill:url(#Áåçûìÿííûé_ãðàäèåíò_3-7);}.cls-31{fill:url(#Áåçûìÿííûé_ãðàäèåíò_3-8);}.cls-32{fill:url(#Áåçûìÿííûé_ãðàäèåíò_59-3);}.cls-33{fill:url(#Áåçûìÿííûé_ãðàäèåíò_122-3);}.cls-34{fill:url(#Áåçûìÿííûé_ãðàäèåíò_3-9);}.cls-36{fill:#73fff5;}.cls-38{opacity:0.1;}.cls-40{fill:url(#Áåçûìÿííûé_ãðàäèåíò_3-10);}.cls-41{fill:url(#Áåçûìÿííûé_ãðàäèåíò_3-11);}.cls-42{fill:url(#Áåçûìÿííûé_ãðàäèåíò_3-12);}.cls-43{fill:url(#Áåçûìÿííûé_ãðàäèåíò_3-13);}.cls-44{fill:url(#Áåçûìÿííûé_ãðàäèåíò_59-4);}.cls-45{fill:url(#Áåçûìÿííûé_ãðàäèåíò_122-4);}.cls-46{fill:url(#Áåçûìÿííûé_ãðàäèåíò_3-14);}.cls-47{fill:url(#Áåçûìÿííûé_ãðàäèåíò_59-5);}.cls-48{fill:url(#Áåçûìÿííûé_ãðàäèåíò_122-5);}.cls-49{fill:url(#Áåçûìÿííûé_ãðàäèåíò_3-15);}.cls-50{fill:url(#Áåçûìÿííûé_ãðàäèåíò_3-16);}.cls-51{fill:url(#Áåçûìÿííûé_ãðàäèåíò_59-6);}.cls-52{fill:url(#Áåçûìÿííûé_ãðàäèåíò_122-6);}.cls-53{fill:url(#Áåçûìÿííûé_ãðàäèåíò_3-17);}.cls-54,.cls-55{fill:#88fff3;}.cls-56{fill:url(#Áåçûìÿííûé_ãðàäèåíò_3-18);}.cls-57{fill:url(#Áåçûìÿííûé_ãðàäèåíò_3-19);}.cls-58{fill:url(#Áåçûìÿííûé_ãðàäèåíò_3-20);}.cls-59{fill:url(#Áåçûìÿííûé_ãðàäèåíò_3-21);}.cls-60{fill:url(#Áåçûìÿííûé_ãðàäèåíò_59-7);}.cls-61{fill:url(#Áåçûìÿííûé_ãðàäèåíò_122-7);}.cls-62{fill:url(#Áåçûìÿííûé_ãðàäèåíò_3-22);}.cls-63{fill:url(#Áåçûìÿííûé_ãðàäèåíò_59-8);}.cls-64{fill:url(#Áåçûìÿííûé_ãðàäèåíò_122-8);}.cls-65{fill:url(#Áåçûìÿííûé_ãðàäèåíò_3-23);}.cls-66{fill:url(#Áåçûìÿííûé_ãðàäèåíò_3-24);}.cls-67{fill:url(#Áåçûìÿííûé_ãðàäèåíò_59-9);}.cls-68{fill:url(#Áåçûìÿííûé_ãðàäèåíò_122-9);}.cls-69{fill:url(#Áåçûìÿííûé_ãðàäèåíò_3-25);}.cls-70{fill:url(#Áåçûìÿííûé_ãðàäèåíò_94);}.cls-71{fill:url(#Áåçûìÿííûé_ãðàäèåíò_107);}.cls-72{fill:url(#Áåçûìÿííûé_ãðàäèåíò_59-10);}.cls-73{fill:url(#Áåçûìÿííûé_ãðàäèåíò_107-2);}.cls-75{fill:url(#Áåçûìÿííûé_ãðàäèåíò_107-3);}.cls-76{fill:url(#Áåçûìÿííûé_ãðàäèåíò_107-4);}.cls-77{fill:url(#Áåçûìÿííûé_ãðàäèåíò_107-5);}.cls-78{fill:url(#Áåçûìÿííûé_ãðàäèåíò_59-11);}.cls-79{fill:url(#Áåçûìÿííûé_ãðàäèåíò_107-6);}.cls-80{fill:url(#Áåçûìÿííûé_ãðàäèåíò_107-7);}.cls-81{fill:url(#Áåçûìÿííûé_ãðàäèåíò_107-8);}.cls-82{fill:url(#Áåçûìÿííûé_ãðàäèåíò_107-9);}.cls-83{fill:url(#Áåçûìÿííûé_ãðàäèåíò_59-12);}.cls-84{fill:url(#Áåçûìÿííûé_ãðàäèåíò_107-10);}.cls-85{fill:url(#Áåçûìÿííûé_ãðàäèåíò_107-11);}.cls-86{fill:url(#Áåçûìÿííûé_ãðàäèåíò_107-12);}.cls-87{opacity:0.2;}.cls-88{opacity:0.6;}</style><radialGradient id="Áåçûìÿííûé_ãðàäèåíò_49" cx="328.94" cy="130.77" r="673.94" gradientTransform="translate(-871.96 -272.21) scale(2.28 1.71)" gradientUnits="userSpaceOnUse"><stop offset="0" stop-color="#5cfff3"/><stop offset="0.05" stop-color="#51dad7"/><stop offset="0.12" stop-color="#43a8b0"/><stop offset="0.19" stop-color="#367b8e"/><stop offset="0.27" stop-color="#2b5671"/><stop offset="0.35" stop-color="#22375a"/><stop offset="0.43" stop-color="#1b2048"/><stop offset="0.52" stop-color="#160f3b"/><stop offset="0.61" stop-color="#130533"/><stop offset="0.74" stop-color="#120231"/></radialGradient><radialGradient id="Áåçûìÿííûé_ãðàäèåíò_73" cx="714.28" cy="561.28" r="326.92" gradientUnits="userSpaceOnUse"><stop offset="0" stop-color="#42e8e0"/><stop offset="0.02" stop-color="#40d8d7"/><stop offset="0.06" stop-color="#3aafc0"/><stop offset="0.11" stop-color="#3589ac"/><stop offset="0.17" stop-color="#30699a"/><stop offset="0.23" stop-color="#2c4d8b"/><stop offset="0.3" stop-color="#29377f"/><stop offset="0.38" stop-color="#272675"/><stop offset="0.47" stop-color="#251b6f"/><stop offset="0.61" stop-color="#24146b"/><stop offset="1" stop-color="#24126a"/></radialGradient><radialGradient id="Áåçûìÿííûé_ãðàäèåíò_28" cx="922.89" cy="656.42" r="579.33" gradientUnits="userSpaceOnUse"><stop offset="0" stop-color="#42e8e0"/><stop offset="0.1" stop-color="#3ccace"/><stop offset="0.34" stop-color="#2f87a5"/><stop offset="0.56" stop-color="#255385"/><stop offset="0.75" stop-color="#1e2d6e"/><stop offset="0.91" stop-color="#1a1660"/><stop offset="1" stop-color="#180d5b"/></radialGradient><linearGradient id="Áåçûìÿííûé_ãðàäèåíò_3" x1="776.77" y1="515.79" x2="1192.23" y2="515.79" gradientUnits="userSpaceOnUse"><stop offset="0" stop-color="#180d5b"/><stop offset="0.09" stop-color="#1a1660"/><stop offset="0.25" stop-color="#1e2d6e"/><stop offset="0.44" stop-color="#255385"/><stop offset="0.66" stop-color="#2f87a5"/><stop offset="0.9" stop-color="#3ccace"/><stop offset="1" stop-color="#42e8e0"/></linearGradient><radialGradient id="Áåçûìÿííûé_ãðàäèåíò_28-2" cx="772.65" cy="557.21" r="167.25" xlink:href="#Áåçûìÿííûé_ãðàäèåíò_28"/><radialGradient id="Áåçûìÿííûé_ãðàäèåíò_28-3" cx="782.02" cy="515.93" r="345.16" xlink:href="#Áåçûìÿííûé_ãðàäèåíò_28"/><radialGradient id="Áåçûìÿííûé_ãðàäèåíò_28-4" cx="809.4" cy="532.5" r="282.47" xlink:href="#Áåçûìÿííûé_ãðàäèåíò_28"/><radialGradient id="Áåçûìÿííûé_ãðàäèåíò_28-5" cx="772.65" cy="533.95" r="399.28" xlink:href="#Áåçûìÿííûé_ãðàäèåíò_28"/><radialGradient id="Áåçûìÿííûé_ãðàäèåíò_28-6" cx="772.65" cy="532.5" r="533.45" xlink:href="#Áåçûìÿííûé_ãðàäèåíò_28"/><linearGradient id="Áåçûìÿííûé_ãðàäèåíò_3-2" x1="965.24" y1="374.8" x2="774.11" y2="335.49" xlink:href="#Áåçûìÿííûé_ãðàäèåíò_3"/><linearGradient id="Áåçûìÿííûé_ãðàäèåíò_3-3" x1="907.06" y1="422.89" x2="777.22" y2="338.56" xlink:href="#Áåçûìÿííûé_ãðàäèåíò_3"/><linearGradient id="Áåçûìÿííûé_ãðàäèåíò_3-4" x1="-128.91" y1="425.4" x2="-23.9" y2="369.4" gradientTransform="matrix(-1, 0, 0, 1, 741.78, 0)" xlink:href="#Áåçûìÿííûé_ãðàäèåíò_3"/><linearGradient id="Áåçûìÿííûé_ãðàäèåíò_3-5" x1="922.48" y1="455.57" x2="785.88" y2="380.66" xlink:href="#Áåçûìÿííûé_ãðàäèåíò_3"/><linearGradient id="Áåçûìÿííûé_ãðàäèåíò_59" x1="812.43" y1="432.03" x2="907.42" y2="432.03" gradientUnits="userSpaceOnUse"><stop offset="0" stop-color="#2b237c"/><stop offset="1" stop-color="#180d5b"/></linearGradient><linearGradient id="Áåçûìÿííûé_ãðàäèåíò_122" x1="841.47" y1="454.87" x2="754.94" y2="405.68" gradientUnits="userSpaceOnUse"><stop offset="0" stop-color="#180d5b"/><stop offset="0.1" stop-color="#1a1560"/><stop offset="0.25" stop-color="#1e2d6e"/><stop offset="0.28" stop-color="#1f3372"/><stop offset="0.38" stop-color="#22447c"/><stop offset="0.57" stop-color="#2b7097"/><stop offset="0.83" stop-color="#39b7c2"/><stop offset="1" stop-color="#42e8e0"/></linearGradient><linearGradient id="Áåçûìÿííûé_ãðàäèåíò_3-6" x1="878.82" y1="343.84" x2="767.36" y2="271.44" xlink:href="#Áåçûìÿííûé_ãðàäèåíò_3"/><linearGradient id="Áåçûìÿííûé_ãðàäèåíò_59-2" x1="812.43" y1="339.76" x2="907.42" y2="339.76" xlink:href="#Áåçûìÿííûé_ãðàäèåíò_59"/><linearGradient id="Áåçûìÿííûé_ãðàäèåíò_122-2" x1="830.4" y1="356.17" x2="752.53" y2="312.27" xlink:href="#Áåçûìÿííûé_ãðàäèåíò_122"/><linearGradient id="Áåçûìÿííûé_ãðàäèåíò_3-7" x1="856.66" y1="320.06" x2="767.05" y2="299.83" xlink:href="#Áåçûìÿííûé_ãðàäèåíò_3"/><linearGradient id="Áåçûìÿííûé_ãðàäèåíò_3-8" x1="874.77" y1="338.44" x2="773.51" y2="272.68" xlink:href="#Áåçûìÿííûé_ãðàäèåíò_3"/><linearGradient id="Áåçûìÿííûé_ãðàäèåíò_59-3" x1="814.45" y1="331.05" x2="900.75" y2="331.05" xlink:href="#Áåçûìÿííûé_ãðàäèåíò_59"/><linearGradient id="Áåçûìÿííûé_ãðàäèåíò_122-3" x1="829.49" y1="345.23" x2="762.19" y2="307.29" xlink:href="#Áåçûìÿííûé_ãðàäèåíò_122"/><linearGradient id="Áåçûìÿííûé_ãðàäèåíò_3-9" x1="854.63" y1="316.84" x2="773.23" y2="298.46" xlink:href="#Áåçûìÿííûé_ãðàäèåíò_3"/><linearGradient id="Áåçûìÿííûé_ãðàäèåíò_3-10" x1="1278.57" y1="373.11" x2="1087.44" y2="333.8" xlink:href="#Áåçûìÿííûé_ãðàäèåíò_3"/><linearGradient id="Áåçûìÿííûé_ãðàäèåíò_3-11" x1="1220.39" y1="421.2" x2="1090.55" y2="336.87" xlink:href="#Áåçûìÿííûé_ãðàäèåíò_3"/><linearGradient id="Áåçûìÿííûé_ãðàäèåíò_3-12" x1="-442.24" y1="423.71" x2="-337.23" y2="367.71" gradientTransform="matrix(-1, 0, 0, 1, 741.78, 0)" xlink:href="#Áåçûìÿííûé_ãðàäèåíò_3"/><linearGradient id="Áåçûìÿííûé_ãðàäèåíò_3-13" x1="1235.81" y1="453.88" x2="1099.21" y2="378.96" xlink:href="#Áåçûìÿííûé_ãðàäèåíò_3"/><linearGradient id="Áåçûìÿííûé_ãðàäèåíò_59-4" x1="1125.75" y1="430.34" x2="1220.75" y2="430.34" xlink:href="#Áåçûìÿííûé_ãðàäèåíò_59"/><linearGradient id="Áåçûìÿííûé_ãðàäèåíò_122-4" x1="1154.8" y1="453.18" x2="1068.27" y2="403.99" xlink:href="#Áåçûìÿííûé_ãðàäèåíò_122"/><linearGradient id="Áåçûìÿííûé_ãðàäèåíò_3-14" x1="1192.15" y1="342.15" x2="1080.69" y2="269.75" xlink:href="#Áåçûìÿííûé_ãðàäèåíò_3"/><linearGradient id="Áåçûìÿííûé_ãðàäèåíò_59-5" x1="1125.75" y1="338.07" x2="1220.75" y2="338.07" xlink:href="#Áåçûìÿííûé_ãðàäèåíò_59"/><linearGradient id="Áåçûìÿííûé_ãðàäèåíò_122-5" x1="1143.73" y1="354.48" x2="1065.86" y2="310.58" xlink:href="#Áåçûìÿííûé_ãðàäèåíò_122"/><linearGradient id="Áåçûìÿííûé_ãðàäèåíò_3-15" x1="1169.99" y1="318.37" x2="1080.38" y2="298.13" xlink:href="#Áåçûìÿííûé_ãðàäèåíò_3"/><linearGradient id="Áåçûìÿííûé_ãðàäèåíò_3-16" x1="1188.1" y1="336.75" x2="1086.84" y2="270.98" xlink:href="#Áåçûìÿííûé_ãðàäèåíò_3"/><linearGradient id="Áåçûìÿííûé_ãðàäèåíò_59-6" x1="1127.78" y1="329.35" x2="1214.08" y2="329.35" xlink:href="#Áåçûìÿííûé_ãðàäèåíò_59"/><linearGradient id="Áåçûìÿííûé_ãðàäèåíò_122-6" x1="1142.82" y1="343.54" x2="1075.52" y2="305.59" xlink:href="#Áåçûìÿííûé_ãðàäèåíò_122"/><linearGradient id="Áåçûìÿííûé_ãðàäèåíò_3-17" x1="1167.96" y1="315.15" x2="1086.56" y2="296.77" xlink:href="#Áåçûìÿííûé_ãðàäèåíò_3"/><linearGradient id="Áåçûìÿííûé_ãðàäèåíò_3-18" x1="1120.59" y1="464.56" x2="929.46" y2="425.25" xlink:href="#Áåçûìÿííûé_ãðàäèåíò_3"/><linearGradient id="Áåçûìÿííûé_ãðàäèåíò_3-19" x1="1062.41" y1="512.65" x2="932.57" y2="428.32" xlink:href="#Áåçûìÿííûé_ãðàäèåíò_3"/><linearGradient id="Áåçûìÿííûé_ãðàäèåíò_3-20" x1="-284.25" y1="515.16" x2="-179.24" y2="459.16" gradientTransform="matrix(-1, 0, 0, 1, 741.78, 0)" xlink:href="#Áåçûìÿííûé_ãðàäèåíò_3"/><linearGradient id="Áåçûìÿííûé_ãðàäèåíò_3-21" x1="1077.83" y1="545.32" x2="941.23" y2="470.41" xlink:href="#Áåçûìÿííûé_ãðàäèåíò_3"/><linearGradient id="Áåçûìÿííûé_ãðàäèåíò_59-7" x1="967.77" y1="521.79" x2="1062.77" y2="521.79" xlink:href="#Áåçûìÿííûé_ãðàäèåíò_59"/><linearGradient id="Áåçûìÿííûé_ãðàäèåíò_122-7" x1="996.81" y1="544.63" x2="910.29" y2="495.44" xlink:href="#Áåçûìÿííûé_ãðàäèåíò_122"/><linearGradient id="Áåçûìÿííûé_ãðàäèåíò_3-22" x1="1034.17" y1="433.59" x2="922.71" y2="361.2" xlink:href="#Áåçûìÿííûé_ãðàäèåíò_3"/><linearGradient id="Áåçûìÿííûé_ãðàäèåíò_59-8" x1="967.77" y1="429.52" x2="1062.77" y2="429.52" xlink:href="#Áåçûìÿííûé_ãðàäèåíò_59"/><linearGradient id="Áåçûìÿííûé_ãðàäèåíò_122-8" x1="985.75" y1="445.93" x2="907.88" y2="402.03" xlink:href="#Áåçûìÿííûé_ãðàäèåíò_122"/><linearGradient id="Áåçûìÿííûé_ãðàäèåíò_3-23" x1="1012.01" y1="409.82" x2="922.4" y2="389.58" xlink:href="#Áåçûìÿííûé_ãðàäèåíò_3"/><linearGradient id="Áåçûìÿííûé_ãðàäèåíò_3-24" x1="1030.11" y1="428.2" x2="928.86" y2="362.43" xlink:href="#Áåçûìÿííûé_ãðàäèåíò_3"/><linearGradient id="Áåçûìÿííûé_ãðàäèåíò_59-9" x1="969.8" y1="420.8" x2="1056.1" y2="420.8" xlink:href="#Áåçûìÿííûé_ãðàäèåíò_59"/><linearGradient id="Áåçûìÿííûé_ãðàäèåíò_122-9" x1="984.84" y1="434.99" x2="917.54" y2="397.04" xlink:href="#Áåçûìÿííûé_ãðàäèåíò_122"/><linearGradient id="Áåçûìÿííûé_ãðàäèåíò_3-25" x1="1009.98" y1="406.6" x2="928.58" y2="388.21" xlink:href="#Áåçûìÿííûé_ãðàäèåíò_3"/><linearGradient id="Áåçûìÿííûé_ãðàäèåíò_94" x1="1035.99" y1="406.21" x2="1035.99" y2="285.6" gradientUnits="userSpaceOnUse"><stop offset="0" stop-color="#fccc6b"/><stop offset="0.05" stop-color="#e5b86b"/><stop offset="0.18" stop-color="#b28d6b"/><stop offset="0.32" stop-color="#87676a"/><stop offset="0.45" stop-color="#63486a"/><stop offset="0.59" stop-color="#47306a"/><stop offset="0.72" stop-color="#34206a"/><stop offset="0.86" stop-color="#28156a"/><stop offset="1" stop-color="#24126a"/></linearGradient><linearGradient id="Áåçûìÿííûé_ãðàäèåíò_107" x1="1028.4" y1="599.26" x2="1142.02" y2="599.26" xlink:href="#Áåçûìÿííûé_ãðàäèåíò_28"/><linearGradient id="Áåçûìÿííûé_ãðàäèåíò_59-10" x1="1110.32" y1="599.26" x2="1167.13" y2="599.26" xlink:href="#Áåçûìÿííûé_ãðàäèåíò_59"/><linearGradient id="Áåçûìÿííûé_ãðàäèåíò_107-2" x1="1053.51" y1="586.71" x2="1167.14" y2="586.71" xlink:href="#Áåçûìÿííûé_ãðàäèåíò_28"/><linearGradient id="Áåçûìÿííûé_ãðàäèåíò_107-3" x1="1053.51" y1="586.71" x2="1111.51" y2="586.71" xlink:href="#Áåçûìÿííûé_ãðàäèåíò_28"/><linearGradient id="Áåçûìÿííûé_ãðàäèåíò_107-4" x1="1068.97" y1="619.78" x2="1164.07" y2="557.61" xlink:href="#Áåçûìÿííûé_ãðàäèåíò_28"/><linearGradient id="Áåçûìÿííûé_ãðàäèåíò_107-5" x1="1114.45" y1="549.59" x2="1228.07" y2="549.59" xlink:href="#Áåçûìÿííûé_ãðàäèåíò_28"/><linearGradient id="Áåçûìÿííûé_ãðàäèåíò_59-11" x1="1196.37" y1="549.59" x2="1253.18" y2="549.59" xlink:href="#Áåçûìÿííûé_ãðàäèåíò_59"/><linearGradient id="Áåçûìÿííûé_ãðàäèåíò_107-6" x1="1139.56" y1="537.04" x2="1253.19" y2="537.04" xlink:href="#Áåçûìÿííûé_ãðàäèåíò_28"/><linearGradient id="Áåçûìÿííûé_ãðàäèåíò_107-7" x1="1139.56" y1="537.04" x2="1197.56" y2="537.04" xlink:href="#Áåçûìÿííûé_ãðàäèåíò_28"/><linearGradient id="Áåçûìÿííûé_ãðàäèåíò_107-8" x1="1155.02" y1="570.1" x2="1250.12" y2="507.94" xlink:href="#Áåçûìÿííûé_ãðàäèåíò_28"/><linearGradient id="Áåçûìÿííûé_ãðàäèåíò_107-9" x1="942.35" y1="648.94" x2="1055.97" y2="648.94" xlink:href="#Áåçûìÿííûé_ãðàäèåíò_28"/><linearGradient id="Áåçûìÿííûé_ãðàäèåíò_59-12" x1="1024.27" y1="648.94" x2="1081.08" y2="648.94" xlink:href="#Áåçûìÿííûé_ãðàäèåíò_59"/><linearGradient id="Áåçûìÿííûé_ãðàäèåíò_107-10" x1="967.46" y1="636.39" x2="1081.09" y2="636.39" xlink:href="#Áåçûìÿííûé_ãðàäèåíò_28"/><linearGradient id="Áåçûìÿííûé_ãðàäèåíò_107-11" x1="967.46" y1="636.39" x2="1025.46" y2="636.39" xlink:href="#Áåçûìÿííûé_ãðàäèåíò_28"/><linearGradient id="Áåçûìÿííûé_ãðàäèåíò_107-12" x1="982.92" y1="669.45" x2="1078.02" y2="607.29" xlink:href="#Áåçûìÿííûé_ãðàäèåíò_28"/></defs><g class="cls-1"><g id="Layer_1" data-name="Layer 1"><rect class="cls-2" width="1366" height="768"/><g class="cls-3"><path class="cls-4" d="M349.91,661.23h-1.68V598a55,55,0,0,1,54.92-54.92H785.56v1.68H403.15A53.3,53.3,0,0,0,349.91,598Z"/><path class="cls-4" d="M333.4,625.05h-1.68V596.89a68.54,68.54,0,0,1,68.46-68.46H785.56v1.68H400.18a66.85,66.85,0,0,0-66.78,66.78Z"/><path class="cls-4" d="M315.91,639.56h-1.68v-43a83.93,83.93,0,0,1,83.84-83.84H785.56v1.68H398.07a82.26,82.26,0,0,0-82.16,82.16Z"/><path class="cls-4" d="M302,684h-1.68V591.07A94.21,94.21,0,0,1,394.46,497h391.1v1.68H394.46A92.53,92.53,0,0,0,302,591.07Z"/><path class="cls-4" d="M349.07,668.86a4.49,4.49,0,1,1,4.49-4.49A4.5,4.5,0,0,1,349.07,668.86Zm0-7.3a2.81,2.81,0,1,0,2.81,2.81A2.82,2.82,0,0,0,349.07,661.56Z"/><path class="cls-4" d="M332.56,632.4a4.49,4.49,0,1,1,4.49-4.49A4.5,4.5,0,0,1,332.56,632.4Zm0-7.3a2.81,2.81,0,1,0,2.81,2.81A2.81,2.81,0,0,0,332.56,625.1Z"/><path class="cls-4" d="M315.07,647a4.49,4.49,0,1,1,4.49-4.49A4.49,4.49,0,0,1,315.07,647Zm0-7.3a2.81,2.81,0,1,0,2.81,2.81A2.82,2.82,0,0,0,315.07,639.65Z"/><path class="cls-4" d="M301.19,691.26a4.49,4.49,0,1,1,4.49-4.49A4.5,4.5,0,0,1,301.19,691.26Zm0-7.3a2.81,2.81,0,1,0,2.81,2.81A2.81,2.81,0,0,0,301.19,684Z"/><path class="cls-4" d="M784.71,410.15H402.29a55,55,0,0,1-54.92-54.92V292h1.68v63.2a53.3,53.3,0,0,0,53.24,53.24H784.71Z"/><path class="cls-4" d="M784.71,424.83H399.32a68.53,68.53,0,0,1-68.45-68.46V328.21h1.68v28.16a66.84,66.84,0,0,0,66.77,66.78H784.71Z"/><path class="cls-4" d="M784.71,440.56H397.22a83.94,83.94,0,0,1-83.85-83.84v-43h1.68v43a82.27,82.27,0,0,0,82.17,82.17H784.71Z"/><path class="cls-4" d="M784.71,456.3H393.6a94.21,94.21,0,0,1-94.1-94.11V269.31h1.68v92.88a92.53,92.53,0,0,0,92.42,92.43H784.71Z"/><path class="cls-4" d="M348.21,293.39a4.5,4.5,0,1,1,4.49-4.5A4.5,4.5,0,0,1,348.21,293.39Zm0-7.31a2.82,2.82,0,1,0,2.81,2.81A2.81,2.81,0,0,0,348.21,286.08Z"/><path class="cls-4" d="M331.71,329.84a4.49,4.49,0,1,1,4.49-4.49A4.5,4.5,0,0,1,331.71,329.84Zm0-7.3a2.81,2.81,0,1,0,2.81,2.81A2.81,2.81,0,0,0,331.71,322.54Z"/><path class="cls-4" d="M314.21,315.29a4.49,4.49,0,1,1,4.49-4.49A4.5,4.5,0,0,1,314.21,315.29Zm0-7.3A2.81,2.81,0,1,0,317,310.8,2.81,2.81,0,0,0,314.21,308Z"/><path class="cls-4" d="M300.34,271a4.49,4.49,0,1,1,4.49-4.49A4.5,4.5,0,0,1,300.34,271Zm0-7.3a2.81,2.81,0,1,0,2.81,2.81A2.82,2.82,0,0,0,300.34,263.68Z"/><rect class="cls-4" x="269.06" y="482.69" width="515.29" height="1.68"/><rect class="cls-4" x="225.53" y="468.54" width="560.03" height="1.68"/><path class="cls-4" d="M265.76,488a4.5,4.5,0,1,1,4.5-4.5A4.5,4.5,0,0,1,265.76,488Zm0-7.31a2.82,2.82,0,1,0,2.82,2.81A2.81,2.81,0,0,0,265.76,480.72Z"/><path class="cls-4" d="M222.24,473.87a4.5,4.5,0,1,1,4.49-4.49A4.5,4.5,0,0,1,222.24,473.87Zm0-7.31a2.82,2.82,0,1,0,2.81,2.82A2.82,2.82,0,0,0,222.24,466.56Z"/><path class="cls-4" d="M1178.6,410.15H785v-1.68H1178.6a53.3,53.3,0,0,0,53.24-53.24V292h1.68v63.2A55,55,0,0,1,1178.6,410.15Z"/><path class="cls-4" d="M1181.57,424.83H785v-1.68h396.62a66.85,66.85,0,0,0,66.78-66.78V328.21H1250v28.16A68.54,68.54,0,0,1,1181.57,424.83Z"/><path class="cls-4" d="M1183.68,440.56H785v-1.67h398.73a82.27,82.27,0,0,0,82.16-82.17v-43h1.68v43A83.93,83.93,0,0,1,1183.68,440.56Z"/><path class="cls-4" d="M1187.29,456.3H785v-1.68h402.34a92.54,92.54,0,0,0,92.43-92.43V269.31h1.68v92.88A94.22,94.22,0,0,1,1187.29,456.3Z"/><path class="cls-4" d="M1232.68,293.39a4.5,4.5,0,1,1,4.49-4.5A4.5,4.5,0,0,1,1232.68,293.39Zm0-7.31a2.82,2.82,0,1,0,2.82,2.81A2.81,2.81,0,0,0,1232.68,286.08Z"/><path class="cls-4" d="M1249.19,329.84a4.49,4.49,0,1,1,4.49-4.49A4.5,4.5,0,0,1,1249.19,329.84Zm0-7.3a2.81,2.81,0,1,0,2.81,2.81A2.81,2.81,0,0,0,1249.19,322.54Z"/><path class="cls-4" d="M1266.68,315.29a4.49,4.49,0,1,1,4.49-4.49A4.5,4.5,0,0,1,1266.68,315.29Zm0-7.3a2.81,2.81,0,1,0,2.81,2.81A2.81,2.81,0,0,0,1266.68,308Z"/><path class="cls-4" d="M1280.56,271a4.49,4.49,0,1,1,4.49-4.49A4.49,4.49,0,0,1,1280.56,271Zm0-7.3a2.81,2.81,0,1,0,2.81,2.81A2.81,2.81,0,0,0,1280.56,263.68Z"/><path class="cls-4" d="M1234.38,661.23h-1.68V598a53.3,53.3,0,0,0-53.24-53.24H785.81v-1.68h393.65A55,55,0,0,1,1234.38,598Z"/><path class="cls-4" d="M1250.88,625.05h-1.68V596.89a66.84,66.84,0,0,0-66.77-66.78H785.81v-1.68h396.62a68.53,68.53,0,0,1,68.45,68.46Z"/><path class="cls-4" d="M1268.37,639.56h-1.68v-43a82.25,82.25,0,0,0-82.16-82.16H785.81V512.7h398.72a83.93,83.93,0,0,1,83.84,83.84Z"/><path class="cls-4" d="M1282.25,684h-1.68V591.07a92.53,92.53,0,0,0-92.42-92.42H785.81V497h402.34a94.2,94.2,0,0,1,94.1,94.1Z"/><path class="cls-4" d="M1233.54,668.86a4.49,4.49,0,1,1,4.49-4.49A4.5,4.5,0,0,1,1233.54,668.86Zm0-7.3a2.81,2.81,0,1,0,2.81,2.81A2.82,2.82,0,0,0,1233.54,661.56Z"/><path class="cls-4" d="M1250,632.4a4.49,4.49,0,1,1,4.5-4.49A4.5,4.5,0,0,1,1250,632.4Zm0-7.3a2.81,2.81,0,1,0,2.82,2.81A2.81,2.81,0,0,0,1250,625.1Z"/><path class="cls-4" d="M1267.53,647a4.49,4.49,0,1,1,4.5-4.49A4.5,4.5,0,0,1,1267.53,647Zm0-7.3a2.81,2.81,0,1,0,2.82,2.81A2.81,2.81,0,0,0,1267.53,639.65Z"/><path class="cls-4" d="M1281.41,691.26a4.49,4.49,0,1,1,4.5-4.49A4.5,4.5,0,0,1,1281.41,691.26Zm0-7.3a2.81,2.81,0,1,0,2.82,2.81A2.81,2.81,0,0,0,1281.41,684Z"/><rect class="cls-4" x="786.17" y="468.89" width="526.52" height="1.68"/><rect class="cls-4" x="784.95" y="483.05" width="571.26" height="1.68"/><path class="cls-4" d="M1316,474.22a4.49,4.49,0,1,1,4.49-4.49A4.5,4.5,0,0,1,1316,474.22Zm0-7.3a2.81,2.81,0,1,0,2.81,2.81A2.82,2.82,0,0,0,1316,466.92Z"/><path class="cls-4" d="M1359.51,488.38a4.5,4.5,0,1,1,4.49-4.49A4.5,4.5,0,0,1,1359.51,488.38Zm0-7.31a2.82,2.82,0,1,0,2.81,2.82A2.82,2.82,0,0,0,1359.51,481.07Z"/></g><path class="cls-5" d="M869.26,352.55a.82.82,0,0,1-.41-1.52L989.46,281.4a.81.81,0,0,1,1.1.3.81.81,0,0,1-.29,1.11L869.66,352.44A.8.8,0,0,1,869.26,352.55Z"/><path class="cls-5" d="M1105.74,349.81a.86.86,0,0,1-.41-.1l-115.87-66.9a.81.81,0,0,1,.81-1.41l115.87,66.9a.81.81,0,0,1-.4,1.51Z"/><path class="cls-5" d="M929,667.14a16,16,0,0,1-7.83-1.8L803.91,597.63c-2.17-1.25-3.37-3-3.37-5,0-2.31,1.68-4.61,4.6-6.29l224.77-129.77c5.27-3.05,13.31-3.37,17.91-.71l117.28,67.71c2.17,1.25,3.36,3,3.36,5,0,2.31-1.67,4.6-4.59,6.28L939.09,664.63A20.7,20.7,0,0,1,929,667.14Zm111-211.48a19.06,19.06,0,0,0-9.27,2.32L806,587.75c-2.41,1.39-3.79,3.17-3.79,4.89,0,1.36.91,2.63,2.56,3.58L922,663.93h0c4.15,2.4,11.46,2.08,16.29-.71l224.78-129.77c2.4-1.39,3.78-3.17,3.78-4.88,0-1.36-.91-2.64-2.55-3.59L1047,457.27A14.31,14.31,0,0,0,1040,455.66Z"/><polygon class="cls-6" points="1147.84 495.53 1115.94 477.11 1147.84 458.69 1179.74 477.11 1147.84 495.53"/><path class="cls-7" d="M1192.23,479.44l-17,3-119.4-68.94c-5-2.87-13.66-2.51-19.4.8L806.59,547l-29.82,5.23v9.7h0c0,1.86,1,3.65,3.34,5l133,76.8c5,2.87,13.66,2.51,19.4-.81L1187.48,495.7c3.13-1.81,4.73-4.12,4.74-6.31h0Z"/><path class="cls-8" d="M1192.23,479.44l-17,3-119.4-68.94c-5-2.87-13.66-2.51-19.4.8L806.59,547l-29.82,5.23v9.7h0c0,1.86,1,3.65,3.34,5l133,76.8c5,2.87,13.66,2.51,19.4-.81L1187.48,495.7c3.13-1.81,4.73-4.12,4.74-6.31h0Z"/><path class="cls-9" d="M1187.48,489.7,932.54,636.9c-5.74,3.31-14.43,3.67-19.4.8l-133-76.8c-2.3-1.32-3.39-3.11-3.34-5h0v2.54h0c0,1.86,1,3.65,3.34,5l133,76.79c5,2.87,13.66,2.51,19.4-.8l254.94-147.19c3.13-1.81,4.73-4.12,4.74-6.31h0v-2.55h0C1192.21,485.59,1190.61,487.9,1187.48,489.7Z"/><path class="cls-7" d="M913.14,633.79l-133-76.8c-5-2.87-4.35-7.88,1.39-11.2L1036.46,398.6c5.74-3.31,14.43-3.67,19.4-.8l133,76.79c5,2.88,4.34,7.89-1.4,11.2L932.54,633C926.8,636.3,918.11,636.66,913.14,633.79Z"/><path class="cls-10" d="M913.14,633.79l-133-76.8c-5-2.87-4.35-7.88,1.39-11.2L1036.46,398.6c5.74-3.31,14.43-3.67,19.4-.8l133,76.79c5,2.88,4.34,7.89-1.4,11.2L932.54,633C926.8,636.3,918.11,636.66,913.14,633.79Z"/><g class="cls-11"><path class="cls-12" d="M1192.23,477.41l-17,3-119.4-68.93c-5-2.87-13.66-2.51-19.4.8L806.59,545l-29.82,5.22V552h0c0,1.87,1,3.65,3.34,5l133,76.8c5,2.87,13.66,2.51,19.4-.8l254.94-147.2c3.13-1.8,4.73-4.11,4.74-6.31h0Z"/><path class="cls-13" d="M913.14,631.76,780.13,555c-5-2.87-4.35-7.89,1.39-11.2l254.94-147.19c5.74-3.32,14.43-3.68,19.4-.81l133,76.8c5,2.87,4.34,7.88-1.4,11.2L932.54,631C926.8,634.28,918.11,634.63,913.14,631.76Z"/><path class="cls-7" d="M913.14,631.76,780.13,555c-5-2.87-4.35-7.89,1.39-11.2l254.94-147.19c5.74-3.32,14.43-3.68,19.4-.81l133,76.8c5,2.87,4.34,7.88-1.4,11.2L932.54,631C926.8,634.28,918.11,634.63,913.14,631.76Z"/></g><path class="cls-14" d="M851.37,603.24h0c0,1.18-.72,1.72-1.6,1.21l-10.44-6a3.82,3.82,0,0,1-1.59-3h0c0-1.18.71-1.72,1.59-1.21l10.44,6A3.83,3.83,0,0,1,851.37,603.24Z"/><path class="cls-14" d="M880.65,620.15c0,1-.67,1.33-1.49.86a3.31,3.31,0,0,1-1.49-2.59c0-.95.67-1.33,1.49-.86A3.33,3.33,0,0,1,880.65,620.15Z"/><path class="cls-14" d="M886.54,623.55c0,1-.67,1.33-1.5.86a3.33,3.33,0,0,1-1.49-2.59c0-1,.67-1.34,1.49-.86A3.29,3.29,0,0,1,886.54,623.55Z"/><path class="cls-14" d="M892.42,626.94c0,.95-.67,1.34-1.49.86a3.29,3.29,0,0,1-1.49-2.58c0-1,.67-1.34,1.49-.86A3.29,3.29,0,0,1,892.42,626.94Z"/><path class="cls-14" d="M799.67,573.39c0,1-.67,1.34-1.5.86a3.29,3.29,0,0,1-1.49-2.58c0-1,.67-1.34,1.49-.86A3.28,3.28,0,0,1,799.67,573.39Z"/><ellipse class="cls-14" cx="804.06" cy="575.93" rx="1.22" ry="2.11" transform="translate(-180.25 479.25) rotate(-30)"/><path class="cls-14" d="M811.44,580.19c0,.95-.67,1.33-1.5.86a3.33,3.33,0,0,1-1.49-2.59c0-1,.67-1.34,1.49-.86A3.29,3.29,0,0,1,811.44,580.19Z"/><path class="cls-15" d="M913.14,631.76,780.13,555c-5-2.87-4.35-7.89,1.39-11.2l254.94-147.19c5.74-3.32,14.43-3.68,19.4-.81l133,76.8c5,2.87,4.34,7.88-1.4,11.2L932.54,631C926.8,634.28,918.11,634.63,913.14,631.76Z"/><path class="cls-16" d="M913.14,631.76,780.13,555c-5-2.87-4.35-7.89,1.39-11.2l254.94-147.19c5.74-3.32,14.43-3.68,19.4-.81l133,76.8c5,2.87,4.34,7.88-1.4,11.2L932.54,631C926.8,634.28,918.11,634.63,913.14,631.76Z"/><path class="cls-17" d="M915.45,631.67l-133-76.79c-5.39-3.27-6.36-6.72,1.39-11.2l254.95-147.19a21.87,21.87,0,0,1,8.93-2.65,22.52,22.52,0,0,0-11.24,2.74L781.52,543.77c-5.74,3.31-6.37,8.33-1.39,11.2l133,76.79a18.47,18.47,0,0,0,10.47,1.85A16.88,16.88,0,0,1,915.45,631.67Z"/><path class="cls-5" d="M834.51,498.09a.83.83,0,0,1-.4-.11l-56.39-32.56a.8.8,0,0,1,0-1.4l56.39-32.56a.79.79,0,0,1,.81,0L891.31,464a.8.8,0,0,1,0,1.4L834.92,498A.87.87,0,0,1,834.51,498.09Zm-54.77-33.37,54.77,31.62,54.77-31.62L834.51,433.1Z"/><polygon class="cls-6" points="1115.66 430.3 1092.24 443.82 1148.63 476.38 1172.05 462.86 1115.66 430.3"/><polygon class="cls-7" points="834.51 456.73 768.06 418.36 834.51 380 900.97 418.37 834.51 456.73"/><polygon class="cls-7" points="834.51 445.69 768.06 407.33 834.51 368.96 900.97 407.33 834.51 445.69"/><g class="cls-18"><polygon class="cls-19" points="834.51 377.54 783.21 347.92 834.51 318.29 885.82 347.92 834.51 377.54"/><polygon class="cls-20" points="885.82 347.92 885.82 407.33 834.51 436.95 834.51 377.54 885.82 347.92"/><polygon class="cls-21" points="783.21 347.92 783.21 407.33 834.51 436.95 834.51 377.54 783.21 347.92"/></g><polygon class="cls-22" points="834.51 436.95 783.21 407.33 834.51 377.7 885.82 407.33 834.51 436.95"/><polygon class="cls-23" points="900.97 407.33 900.97 418.37 834.51 456.73 834.51 445.69 900.97 407.33"/><polygon class="cls-7" points="768.06 407.33 768.06 418.36 834.51 456.73 834.51 445.69 768.06 407.33"/><polygon class="cls-24" points="768.06 407.33 768.06 418.36 834.51 456.73 834.51 445.69 768.06 407.33"/><polygon class="cls-7" points="834.51 364.46 768.06 326.1 834.51 287.73 900.97 326.1 834.51 364.46"/><polygon class="cls-7" points="768.06 315.06 768.06 326.1 834.51 364.46 834.51 353.43 768.06 315.06"/><polygon class="cls-25" points="834.51 364.46 834.51 445.69 768.06 407.33 768.06 326.1 834.51 364.46"/><polygon class="cls-25" points="783.21 334.84 783.21 407.33 834.51 436.95 885.82 407.33 885.82 334.84 834.51 364.46 783.21 334.84"/><polygon class="cls-25" points="834.51 364.46 834.51 436.95 783.21 407.33 783.21 334.84 834.51 364.46"/><polygon class="cls-26" points="768.06 326.1 768.06 407.33 834.51 445.69 900.97 407.33 900.97 326.1 834.51 364.46 768.06 326.1"/><polygon class="cls-7" points="834.51 353.43 768.06 315.06 834.51 276.69 900.97 315.06 834.51 353.43"/><polygon class="cls-27" points="834.51 353.43 768.06 315.06 834.51 276.69 900.97 315.06 834.51 353.43"/><polygon class="cls-28" points="900.97 315.06 900.97 326.1 834.51 364.46 834.51 353.43 900.97 315.06"/><polygon class="cls-29" points="768.06 315.06 768.06 326.1 834.51 364.46 834.51 353.43 768.06 315.06"/><polygon class="cls-30" points="769.63 315.06 835.3 277.15 834.51 276.69 768.06 315.06 834.51 353.43 835.3 352.97 769.63 315.06"/><polygon class="cls-7" points="834.51 349.8 774.15 314.94 834.51 287.47 894.88 314.94 834.51 349.8"/><polygon class="cls-7" points="774.15 312.3 774.15 314.94 834.51 349.8 834.51 347.15 774.15 312.3"/><polygon class="cls-7" points="834.51 347.15 774.15 312.3 834.51 277.44 894.88 312.3 834.51 347.15"/><polygon class="cls-31" points="834.51 347.15 774.15 312.3 834.51 277.44 894.88 312.3 834.51 347.15"/><polygon class="cls-32" points="894.88 312.3 894.88 314.94 834.51 349.8 834.51 347.15 894.88 312.3"/><polygon class="cls-33" points="774.15 312.3 774.15 314.94 834.51 349.8 834.51 347.15 774.15 312.3"/><polygon class="cls-34" points="775.57 312.3 835.23 277.86 834.51 277.44 774.15 312.3 834.51 347.15 835.23 346.74 775.57 312.3"/><polygon class="cls-35" points="793.48 313.61 791.2 312.3 834.51 287.29 836.79 288.61 793.48 313.61"/><polygon class="cls-35" points="798.04 316.25 795.76 314.93 839.07 289.92 841.35 291.24 798.04 316.25"/><polygon class="cls-35" points="802.6 318.88 800.32 317.56 843.63 292.55 845.91 293.87 802.6 318.88"/><polygon class="cls-35" points="807.16 321.51 804.88 320.19 848.19 295.19 850.47 296.5 807.16 321.51"/><polygon class="cls-35" points="811.72 324.14 809.44 322.83 852.75 297.82 855.03 299.13 811.72 324.14"/><polygon class="cls-35" points="816.28 326.78 814 325.46 857.31 300.45 859.59 301.77 816.28 326.78"/><polygon class="cls-35" points="820.84 329.41 818.56 328.09 861.87 303.08 864.15 304.4 820.84 329.41"/><polygon class="cls-35" points="825.4 332.04 823.12 330.72 866.43 305.72 868.71 307.03 825.4 332.04"/><polygon class="cls-35" points="829.96 334.67 827.67 333.36 870.99 308.35 873.27 309.67 829.96 334.67"/><polygon class="cls-35" points="834.51 337.31 832.24 335.99 875.55 310.98 877.83 312.3 834.51 337.31"/><polygon class="cls-36" points="834.51 287.29 836.79 288.61 834.51 289.92 834.51 287.29"/><polygon class="cls-36" points="839.07 289.92 841.35 291.24 839.07 292.55 839.07 289.92"/><polygon class="cls-36" points="843.63 292.55 845.91 293.87 843.63 295.19 843.63 292.55"/><polygon class="cls-36" points="848.19 295.19 850.47 296.5 848.19 297.82 848.19 295.19"/><polygon class="cls-36" points="852.75 297.82 855.03 299.13 852.75 300.45 852.75 297.82"/><polygon class="cls-36" points="857.31 300.45 859.59 301.77 857.31 303.08 857.31 300.45"/><polygon class="cls-36" points="861.87 303.08 864.15 304.4 861.87 305.72 861.87 303.08"/><polygon class="cls-36" points="866.43 305.72 868.71 307.03 866.43 308.35 866.43 305.72"/><polygon class="cls-36" points="870.99 308.35 873.27 309.67 870.99 310.98 870.99 308.35"/><polygon class="cls-36" points="875.55 310.98 877.83 312.3 875.55 313.61 875.55 310.98"/><g class="cls-11"><polygon class="cls-4" points="793.48 313.61 791.2 312.3 834.51 287.29 836.79 288.61 793.48 313.61"/><polygon class="cls-4" points="798.04 316.25 795.76 314.93 839.07 289.92 841.35 291.24 798.04 316.25"/><polygon class="cls-4" points="802.6 318.88 800.32 317.56 843.63 292.55 845.91 293.87 802.6 318.88"/><polygon class="cls-4" points="807.16 321.51 804.88 320.19 848.19 295.19 850.47 296.5 807.16 321.51"/><polygon class="cls-4" points="811.72 324.14 809.44 322.83 852.75 297.82 855.03 299.13 811.72 324.14"/><polygon class="cls-4" points="816.28 326.78 814 325.46 857.31 300.45 859.59 301.77 816.28 326.78"/><polygon class="cls-4" points="820.84 329.41 818.56 328.09 861.87 303.08 864.15 304.4 820.84 329.41"/><polygon class="cls-4" points="825.4 332.04 823.12 330.72 866.43 305.72 868.71 307.03 825.4 332.04"/><polygon class="cls-4" points="829.96 334.67 827.67 333.36 870.99 308.35 873.27 309.67 829.96 334.67"/><polygon class="cls-4" points="834.51 337.31 832.24 335.99 875.55 310.98 877.83 312.3 834.51 337.31"/></g><polygon class="cls-37" points="768.06 326.1 768.06 407.33 768.97 407.85 768.97 326.62 768.06 326.1"/><polygon class="cls-37" points="900.97 326.1 900.97 407.33 900.05 407.85 900.05 326.62 900.97 326.1"/><polygon class="cls-37" points="834.51 364.46 834.51 364.46 832.95 363.56 832.95 444.8 834.51 445.69 834.51 445.69 834.51 445.69 834.51 445.69 834.51 445.69 836.08 444.8 836.08 363.56 834.51 364.46"/><polygon class="cls-26" points="768.97 399.32 829.4 361.51 786.32 336.64 768.97 346.12 768.97 399.32"/><polygon class="cls-26" points="782.52 415.68 832.95 387.02 832.95 407.85 799.59 425.53 782.52 415.68"/><g class="cls-38"><polygon class="cls-39" points="772.19 336.09 829.49 369.15 829.49 366.57 772.19 333.51 772.19 336.09"/><polygon class="cls-39" points="772.19 342.16 829.49 375.22 829.49 372.64 772.19 339.58 772.19 342.16"/><polygon class="cls-39" points="772.19 348.23 829.49 381.29 829.49 378.7 772.19 345.64 772.19 348.23"/><polygon class="cls-39" points="772.19 354.29 829.49 387.36 829.49 384.77 772.19 351.71 772.19 354.29"/><polygon class="cls-39" points="772.19 360.36 829.49 393.42 829.49 390.84 772.19 357.78 772.19 360.36"/><polygon class="cls-39" points="772.19 366.43 829.49 399.49 829.49 396.9 772.19 363.84 772.19 366.43"/><polygon class="cls-39" points="772.19 372.49 829.49 405.56 829.49 402.97 772.19 369.91 772.19 372.49"/><polygon class="cls-39" points="772.19 378.56 829.49 411.62 829.49 409.04 772.19 375.98 772.19 378.56"/><polygon class="cls-39" points="772.19 384.63 829.49 417.69 829.49 415.1 772.19 382.04 772.19 384.63"/><polygon class="cls-39" points="772.19 390.69 829.49 423.75 829.49 421.17 772.19 388.11 772.19 390.69"/><polygon class="cls-39" points="772.19 396.76 829.49 429.82 829.49 427.24 772.19 394.18 772.19 396.76"/><polygon class="cls-39" points="772.19 402.83 829.49 435.89 829.49 433.3 772.19 400.24 772.19 402.83"/></g><polygon class="cls-7" points="1147.85 455.04 1081.39 416.67 1147.84 378.3 1214.3 416.67 1147.85 455.04"/><polygon class="cls-7" points="1147.85 444 1081.39 405.63 1147.84 367.27 1214.3 405.63 1147.85 444"/><g class="cls-18"><polygon class="cls-40" points="1147.85 375.84 1096.54 346.22 1147.84 316.6 1199.15 346.22 1147.85 375.84"/><polygon class="cls-41" points="1199.15 346.22 1199.15 405.63 1147.85 435.26 1147.85 375.84 1199.15 346.22"/><polygon class="cls-42" points="1096.54 346.22 1096.54 405.63 1147.84 435.26 1147.84 375.84 1096.54 346.22"/></g><polygon class="cls-43" points="1147.85 435.26 1096.54 405.63 1147.84 376.01 1199.15 405.63 1147.85 435.26"/><polygon class="cls-44" points="1214.3 405.63 1214.3 416.67 1147.85 455.04 1147.85 444 1214.3 405.63"/><polygon class="cls-7" points="1081.39 405.63 1081.39 416.67 1147.85 455.04 1147.85 444 1081.39 405.63"/><polygon class="cls-45" points="1081.39 405.63 1081.39 416.67 1147.85 455.04 1147.85 444 1081.39 405.63"/><polygon class="cls-7" points="1147.85 362.77 1081.39 324.4 1147.84 286.04 1214.3 324.4 1147.85 362.77"/><polygon class="cls-7" points="1081.39 313.37 1081.39 324.4 1147.85 362.77 1147.85 351.73 1081.39 313.37"/><polygon class="cls-25" points="1147.85 362.77 1147.85 444 1081.39 405.63 1081.39 324.4 1147.85 362.77"/><polygon class="cls-25" points="1096.54 333.15 1096.54 405.63 1147.85 435.26 1199.15 405.63 1199.15 333.15 1147.85 362.77 1096.54 333.15"/><polygon class="cls-25" points="1147.85 362.77 1147.85 435.26 1096.54 405.63 1096.54 333.15 1147.85 362.77"/><polygon class="cls-26" points="1081.39 324.4 1081.39 405.63 1147.85 444 1214.3 405.63 1214.3 324.4 1147.85 362.77 1081.39 324.4"/><polygon class="cls-7" points="1147.85 351.73 1081.39 313.37 1147.84 275 1214.3 313.37 1147.85 351.73"/><polygon class="cls-46" points="1147.85 351.73 1081.39 313.37 1147.84 275 1214.3 313.37 1147.85 351.73"/><polygon class="cls-47" points="1214.3 313.37 1214.3 324.4 1147.85 362.77 1147.85 351.73 1214.3 313.37"/><polygon class="cls-48" points="1081.39 313.37 1081.39 324.4 1147.85 362.77 1147.85 351.73 1081.39 313.37"/><polygon class="cls-49" points="1082.96 313.37 1148.63 275.45 1147.84 275 1081.39 313.37 1147.85 351.73 1148.63 351.28 1082.96 313.37"/><polygon class="cls-7" points="1147.85 348.1 1087.47 313.25 1147.84 285.78 1208.21 313.25 1147.85 348.1"/><polygon class="cls-7" points="1087.47 310.6 1087.47 313.25 1147.85 348.1 1147.85 345.46 1087.47 310.6"/><polygon class="cls-7" points="1147.85 345.46 1087.47 310.6 1147.84 275.75 1208.21 310.61 1147.85 345.46"/><polygon class="cls-50" points="1147.85 345.46 1087.47 310.6 1147.84 275.75 1208.21 310.61 1147.85 345.46"/><polygon class="cls-51" points="1208.21 310.61 1208.21 313.25 1147.85 348.1 1147.85 345.46 1208.21 310.61"/><polygon class="cls-52" points="1087.47 310.6 1087.47 313.25 1147.85 348.1 1147.85 345.46 1087.47 310.6"/><polygon class="cls-53" points="1088.9 310.6 1148.56 276.16 1147.84 275.75 1087.47 310.6 1147.85 345.46 1148.56 345.05 1088.9 310.6"/><polygon class="cls-35" points="1106.81 311.92 1104.53 310.6 1147.84 285.6 1150.12 286.91 1106.81 311.92"/><polygon class="cls-35" points="1111.37 314.55 1109.09 313.24 1152.4 288.23 1154.68 289.55 1111.37 314.55"/><polygon class="cls-35" points="1115.93 317.19 1113.65 315.87 1156.96 290.86 1159.24 292.18 1115.93 317.19"/><polygon class="cls-35" points="1120.49 319.82 1118.21 318.5 1161.52 293.49 1163.8 294.81 1120.49 319.82"/><polygon class="cls-35" points="1125.05 322.45 1122.77 321.13 1166.08 296.13 1168.36 297.44 1125.05 322.45"/><polygon class="cls-35" points="1129.61 325.08 1127.33 323.77 1170.64 298.76 1172.92 300.07 1129.61 325.08"/><polygon class="cls-35" points="1134.17 327.71 1131.89 326.4 1175.2 301.39 1177.48 302.71 1134.17 327.71"/><polygon class="cls-35" points="1138.72 330.35 1136.44 329.03 1179.76 304.02 1182.04 305.34 1138.72 330.35"/><polygon class="cls-35" points="1143.29 332.98 1141.01 331.66 1184.32 306.66 1186.6 307.97 1143.29 332.98"/><polygon class="cls-35" points="1147.84 335.61 1145.57 334.3 1188.88 309.29 1191.16 310.61 1147.84 335.61"/><polygon class="cls-36" points="1147.84 285.6 1150.12 286.91 1147.84 288.23 1147.84 285.6"/><polygon class="cls-36" points="1152.4 288.23 1154.68 289.55 1152.4 290.86 1152.4 288.23"/><polygon class="cls-36" points="1156.96 290.86 1159.24 292.18 1156.96 293.49 1156.96 290.86"/><polygon class="cls-36" points="1161.52 293.49 1163.8 294.81 1161.52 296.13 1161.52 293.49"/><polygon class="cls-36" points="1166.08 296.13 1168.36 297.44 1166.08 298.76 1166.08 296.13"/><polygon class="cls-36" points="1170.64 298.76 1172.92 300.07 1170.64 301.39 1170.64 298.76"/><polygon class="cls-36" points="1175.2 301.39 1177.48 302.71 1175.2 304.02 1175.2 301.39"/><polygon class="cls-36" points="1179.76 304.02 1182.04 305.34 1179.76 306.66 1179.76 304.02"/><polygon class="cls-36" points="1184.32 306.66 1186.6 307.97 1184.32 309.29 1184.32 306.66"/><polygon class="cls-36" points="1188.88 309.29 1191.16 310.61 1188.88 311.92 1188.88 309.29"/><g class="cls-11"><polygon class="cls-4" points="1106.81 311.92 1104.53 310.6 1147.84 285.6 1150.12 286.91 1106.81 311.92"/><polygon class="cls-4" points="1111.37 314.55 1109.09 313.24 1152.4 288.23 1154.68 289.55 1111.37 314.55"/><polygon class="cls-4" points="1115.93 317.19 1113.65 315.87 1156.96 290.86 1159.24 292.18 1115.93 317.19"/><polygon class="cls-4" points="1120.49 319.82 1118.21 318.5 1161.52 293.49 1163.8 294.81 1120.49 319.82"/><polygon class="cls-4" points="1125.05 322.45 1122.77 321.13 1166.08 296.13 1168.36 297.44 1125.05 322.45"/><polygon class="cls-4" points="1129.61 325.08 1127.33 323.77 1170.64 298.76 1172.92 300.07 1129.61 325.08"/><polygon class="cls-4" points="1134.17 327.71 1131.89 326.4 1175.2 301.39 1177.48 302.71 1134.17 327.71"/><polygon class="cls-4" points="1138.72 330.35 1136.44 329.03 1179.76 304.02 1182.04 305.34 1138.72 330.35"/><polygon class="cls-4" points="1143.29 332.98 1141.01 331.66 1184.32 306.66 1186.6 307.97 1143.29 332.98"/><polygon class="cls-4" points="1147.84 335.61 1145.57 334.3 1188.88 309.29 1191.16 310.61 1147.84 335.61"/></g><polygon class="cls-37" points="1081.39 324.4 1081.39 405.63 1082.3 406.16 1082.3 324.93 1081.39 324.4"/><polygon class="cls-37" points="1214.3 324.4 1214.3 405.63 1213.38 406.16 1213.38 324.93 1214.3 324.4"/><polygon class="cls-37" points="1147.85 362.77 1147.85 362.77 1146.28 361.87 1146.28 443.11 1147.85 444 1147.85 444 1147.85 444 1147.85 444 1147.85 444 1149.41 443.11 1149.41 361.87 1147.85 362.77"/><polygon class="cls-26" points="1082.3 397.63 1142.73 359.82 1099.65 334.94 1082.3 344.42 1082.3 397.63"/><polygon class="cls-26" points="1095.85 413.98 1146.28 385.33 1146.28 406.16 1112.92 423.84 1095.85 413.98"/><g class="cls-38"><polygon class="cls-39" points="1085.52 334.4 1142.82 367.46 1142.82 364.88 1085.52 331.82 1085.52 334.4"/><polygon class="cls-39" points="1085.52 340.47 1142.82 373.53 1142.82 370.94 1085.52 337.88 1085.52 340.47"/><polygon class="cls-39" points="1085.52 346.53 1142.82 379.6 1142.82 377.01 1085.52 343.95 1085.52 346.53"/><polygon class="cls-39" points="1085.52 352.6 1142.82 385.66 1142.82 383.08 1085.52 350.02 1085.52 352.6"/><polygon class="cls-39" points="1085.52 358.67 1142.82 391.73 1142.82 389.14 1085.52 356.08 1085.52 358.67"/><polygon class="cls-39" points="1085.52 364.73 1142.82 397.8 1142.82 395.21 1085.52 362.15 1085.52 364.73"/><polygon class="cls-39" points="1085.52 370.8 1142.82 403.86 1142.82 401.28 1085.52 368.22 1085.52 370.8"/><polygon class="cls-39" points="1085.52 376.87 1142.82 409.93 1142.82 407.34 1085.52 374.28 1085.52 376.87"/><polygon class="cls-39" points="1085.52 382.93 1142.82 416 1142.82 413.41 1085.52 380.35 1085.52 382.93"/><polygon class="cls-39" points="1085.52 389 1142.82 422.06 1142.82 419.48 1085.52 386.42 1085.52 389"/><polygon class="cls-39" points="1085.52 395.07 1142.82 428.13 1142.82 425.54 1085.52 392.48 1085.52 395.07"/><polygon class="cls-39" points="1085.52 401.13 1142.82 434.19 1142.82 431.61 1085.52 398.55 1085.52 401.13"/></g><path class="cls-54" d="M840.75,367.44a2.45,2.45,0,0,1-1.12,1.93c-.62.36-1.12.07-1.12-.64a2.47,2.47,0,0,1,1.12-1.94C840.25,366.43,840.75,366.72,840.75,367.44Z"/><path class="cls-54" d="M844.43,365.31a2.48,2.48,0,0,1-1.12,1.94c-.62.35-1.12.07-1.12-.65a2.48,2.48,0,0,1,1.12-1.94C843.93,364.31,844.43,364.6,844.43,365.31Z"/><path class="cls-54" d="M848.11,363.18a2.47,2.47,0,0,1-1.12,1.94c-.62.36-1.12.07-1.12-.64a2.45,2.45,0,0,1,1.12-1.94C847.61,362.18,848.11,362.47,848.11,363.18Z"/><polygon class="cls-54" points="878.01 347.21 849.81 363.5 849.81 360.91 878.01 344.63 878.01 347.21"/><path class="cls-54" d="M840.75,373.5a2.47,2.47,0,0,1-1.12,1.94c-.62.36-1.12.07-1.12-.65a2.45,2.45,0,0,1,1.12-1.93C840.25,372.5,840.75,372.79,840.75,373.5Z"/><path class="cls-54" d="M844.43,371.38a2.45,2.45,0,0,1-1.12,1.93c-.62.36-1.12.07-1.12-.64a2.47,2.47,0,0,1,1.12-1.94C843.93,370.37,844.43,370.66,844.43,371.38Z"/><path class="cls-54" d="M848.11,369.25a2.48,2.48,0,0,1-1.12,1.94c-.62.36-1.12.07-1.12-.65A2.48,2.48,0,0,1,847,368.6C847.61,368.25,848.11,368.54,848.11,369.25Z"/><polygon class="cls-54" points="878.01 353.28 849.81 369.56 849.81 366.98 878.01 350.7 878.01 353.28"/><path class="cls-54" d="M840.75,379.57a2.48,2.48,0,0,1-1.12,1.94c-.62.35-1.12.06-1.12-.65a2.48,2.48,0,0,1,1.12-1.94C840.25,378.57,840.75,378.86,840.75,379.57Z"/><path class="cls-54" d="M844.43,377.44a2.47,2.47,0,0,1-1.12,1.94c-.62.36-1.12.07-1.12-.65a2.45,2.45,0,0,1,1.12-1.93C843.93,376.44,844.43,376.73,844.43,377.44Z"/><path class="cls-54" d="M848.11,375.32a2.45,2.45,0,0,1-1.12,1.93c-.62.36-1.12.07-1.12-.64a2.47,2.47,0,0,1,1.12-1.94C847.61,374.31,848.11,374.6,848.11,375.32Z"/><polygon class="cls-54" points="878.01 359.35 849.81 375.63 849.81 373.04 878.01 356.76 878.01 359.35"/><path class="cls-54" d="M840.75,385.64a2.45,2.45,0,0,1-1.12,1.93c-.62.36-1.12.07-1.12-.64a2.47,2.47,0,0,1,1.12-1.94C840.25,384.63,840.75,384.92,840.75,385.64Z"/><path class="cls-54" d="M844.43,383.51a2.48,2.48,0,0,1-1.12,1.94c-.62.35-1.12.07-1.12-.65a2.48,2.48,0,0,1,1.12-1.94C843.93,382.51,844.43,382.8,844.43,383.51Z"/><path class="cls-54" d="M848.11,381.38a2.47,2.47,0,0,1-1.12,1.94c-.62.36-1.12.07-1.12-.64a2.45,2.45,0,0,1,1.12-1.94C847.61,380.38,848.11,380.67,848.11,381.38Z"/><polygon class="cls-54" points="878.01 365.42 849.81 381.7 849.81 379.11 878.01 362.83 878.01 365.42"/><path class="cls-54" d="M840.75,391.7a2.47,2.47,0,0,1-1.12,1.94c-.62.36-1.12.07-1.12-.65a2.45,2.45,0,0,1,1.12-1.93C840.25,390.7,840.75,391,840.75,391.7Z"/><path class="cls-54" d="M844.43,389.58a2.45,2.45,0,0,1-1.12,1.93c-.62.36-1.12.07-1.12-.64a2.47,2.47,0,0,1,1.12-1.94C843.93,388.57,844.43,388.86,844.43,389.58Z"/><path class="cls-54" d="M848.11,387.45a2.48,2.48,0,0,1-1.12,1.94c-.62.36-1.12.07-1.12-.65A2.48,2.48,0,0,1,847,386.8C847.61,386.45,848.11,386.74,848.11,387.45Z"/><polygon class="cls-54" points="878.01 371.48 849.81 387.76 849.81 385.18 878.01 368.9 878.01 371.48"/><path class="cls-54" d="M840.75,397.77a2.48,2.48,0,0,1-1.12,1.94c-.62.35-1.12.07-1.12-.65a2.48,2.48,0,0,1,1.12-1.94C840.25,396.77,840.75,397.06,840.75,397.77Z"/><path class="cls-54" d="M844.43,395.64a2.47,2.47,0,0,1-1.12,1.94c-.62.36-1.12.07-1.12-.64a2.45,2.45,0,0,1,1.12-1.94C843.93,394.64,844.43,394.93,844.43,395.64Z"/><path class="cls-54" d="M848.11,393.52a2.48,2.48,0,0,1-1.12,1.94c-.62.35-1.12.06-1.12-.65a2.48,2.48,0,0,1,1.12-1.94C847.61,392.51,848.11,392.8,848.11,393.52Z"/><polygon class="cls-54" points="878.01 377.55 849.81 393.83 849.81 391.24 878.01 374.96 878.01 377.55"/><path class="cls-54" d="M840.75,403.84a2.45,2.45,0,0,1-1.12,1.93c-.62.36-1.12.07-1.12-.64a2.47,2.47,0,0,1,1.12-1.94C840.25,402.83,840.75,403.12,840.75,403.84Z"/><path class="cls-54" d="M844.43,401.71a2.48,2.48,0,0,1-1.12,1.94c-.62.35-1.12.07-1.12-.65a2.48,2.48,0,0,1,1.12-1.94C843.93,400.71,844.43,401,844.43,401.71Z"/><path class="cls-54" d="M848.11,399.58a2.47,2.47,0,0,1-1.12,1.94c-.62.36-1.12.07-1.12-.64a2.45,2.45,0,0,1,1.12-1.94C847.61,398.58,848.11,398.87,848.11,399.58Z"/><polygon class="cls-54" points="878.01 383.62 849.81 399.9 849.81 397.31 878.01 381.03 878.01 383.62"/><path class="cls-54" d="M840.75,409.9a2.47,2.47,0,0,1-1.12,1.94c-.62.36-1.12.07-1.12-.65a2.45,2.45,0,0,1,1.12-1.93C840.25,408.9,840.75,409.19,840.75,409.9Z"/><path class="cls-54" d="M844.43,407.78a2.45,2.45,0,0,1-1.12,1.93c-.62.36-1.12.07-1.12-.64a2.47,2.47,0,0,1,1.12-1.94C843.93,406.77,844.43,407.06,844.43,407.78Z"/><path class="cls-54" d="M848.11,405.65a2.48,2.48,0,0,1-1.12,1.94c-.62.36-1.12.07-1.12-.65A2.48,2.48,0,0,1,847,405C847.61,404.65,848.11,404.94,848.11,405.65Z"/><polygon class="cls-54" points="878.01 389.68 849.81 405.96 849.81 403.38 878.01 387.1 878.01 389.68"/><path class="cls-54" d="M840.75,416a2.48,2.48,0,0,1-1.12,1.94c-.62.35-1.12.07-1.12-.65a2.48,2.48,0,0,1,1.12-1.94C840.25,415,840.75,415.26,840.75,416Z"/><path class="cls-54" d="M844.43,413.84a2.47,2.47,0,0,1-1.12,1.94c-.62.36-1.12.07-1.12-.64a2.45,2.45,0,0,1,1.12-1.94C843.93,412.84,844.43,413.13,844.43,413.84Z"/><path class="cls-54" d="M848.11,411.72a2.48,2.48,0,0,1-1.12,1.94c-.62.35-1.12.06-1.12-.65a2.48,2.48,0,0,1,1.12-1.94C847.61,410.71,848.11,411,848.11,411.72Z"/><polygon class="cls-54" points="878.01 395.75 849.81 412.03 849.81 409.44 878.01 393.16 878.01 395.75"/><path class="cls-54" d="M840.75,422a2.45,2.45,0,0,1-1.12,1.93c-.62.36-1.12.07-1.12-.64a2.47,2.47,0,0,1,1.12-1.94C840.25,421,840.75,421.32,840.75,422Z"/><path class="cls-54" d="M844.43,419.91a2.48,2.48,0,0,1-1.12,1.94c-.62.36-1.12.07-1.12-.65a2.48,2.48,0,0,1,1.12-1.94C843.93,418.91,844.43,419.2,844.43,419.91Z"/><path class="cls-54" d="M848.11,417.78a2.45,2.45,0,0,1-1.12,1.94c-.62.36-1.12.07-1.12-.64a2.45,2.45,0,0,1,1.12-1.94C847.61,416.78,848.11,417.07,848.11,417.78Z"/><polygon class="cls-54" points="878.01 401.82 849.81 418.1 849.81 415.51 878.01 399.23 878.01 401.82"/><path class="cls-54" d="M840.75,428.1a2.47,2.47,0,0,1-1.12,1.94c-.62.36-1.12.07-1.12-.64a2.45,2.45,0,0,1,1.12-1.94C840.25,427.1,840.75,427.39,840.75,428.1Z"/><path class="cls-54" d="M844.43,426a2.45,2.45,0,0,1-1.12,1.93c-.62.36-1.12.07-1.12-.64a2.47,2.47,0,0,1,1.12-1.94C843.93,425,844.43,425.26,844.43,426Z"/><path class="cls-54" d="M848.11,423.85a2.48,2.48,0,0,1-1.12,1.94c-.62.36-1.12.07-1.12-.65A2.48,2.48,0,0,1,847,423.2C847.61,422.85,848.11,423.14,848.11,423.85Z"/><polygon class="cls-54" points="878.01 407.88 849.81 424.16 849.81 421.58 878.01 405.3 878.01 407.88"/><path class="cls-54" d="M840.75,434.17a2.48,2.48,0,0,1-1.12,1.94c-.62.35-1.12.07-1.12-.65a2.48,2.48,0,0,1,1.12-1.94C840.25,433.17,840.75,433.46,840.75,434.17Z"/><path class="cls-54" d="M844.43,432a2.47,2.47,0,0,1-1.12,1.94c-.62.36-1.12.07-1.12-.64a2.45,2.45,0,0,1,1.12-1.94C843.93,431,844.43,431.33,844.43,432Z"/><path class="cls-54" d="M848.11,429.92a2.48,2.48,0,0,1-1.12,1.94c-.62.35-1.12.06-1.12-.65a2.48,2.48,0,0,1,1.12-1.94C847.61,428.91,848.11,429.2,848.11,429.92Z"/><polygon class="cls-54" points="878.01 413.95 849.81 430.23 849.81 427.64 878.01 411.37 878.01 413.95"/><polygon class="cls-55" points="897.22 402.96 880.66 412.52 880.66 343.35 897.22 333.79 897.22 402.96"/><path class="cls-5" d="M990.4,455a.77.77,0,0,1-.41-.11L868.3,384.67a.82.82,0,0,1,.82-1.41l121.69,70.26a.81.81,0,0,1,.29,1.11A.8.8,0,0,1,990.4,455Z"/><path class="cls-54" d="M989.86,558.9l-87.31-50.41,87.31-50.41,87.32,50.41Zm-85.12-50.41,85.12,49.15L1075,508.49l-85.13-49.15Z"/><polygon class="cls-7" points="989.86 546.49 923.41 508.12 989.86 469.75 1056.32 508.12 989.86 546.49"/><polygon class="cls-7" points="989.86 535.45 923.41 497.08 989.86 458.72 1056.32 497.08 989.86 535.45"/><g class="cls-18"><polygon class="cls-56" points="989.86 467.29 938.55 437.67 989.86 408.05 1041.17 437.67 989.86 467.29"/><polygon class="cls-57" points="1041.17 437.67 1041.17 497.08 989.86 526.71 989.86 467.29 1041.17 437.67"/><polygon class="cls-58" points="938.56 437.67 938.56 497.08 989.86 526.71 989.86 467.29 938.56 437.67"/></g><polygon class="cls-59" points="989.86 526.71 938.55 497.08 989.86 467.46 1041.17 497.08 989.86 526.71"/><polygon class="cls-60" points="1056.32 497.08 1056.32 508.12 989.86 546.49 989.86 535.45 1056.32 497.08"/><polygon class="cls-7" points="923.41 497.08 923.41 508.12 989.86 546.49 989.86 535.45 923.41 497.08"/><polygon class="cls-61" points="923.41 497.08 923.41 508.12 989.86 546.49 989.86 535.45 923.41 497.08"/><polygon class="cls-7" points="989.86 454.22 923.41 415.85 989.86 377.49 1056.32 415.85 989.86 454.22"/><polygon class="cls-7" points="923.41 404.81 923.41 415.85 989.86 454.22 989.86 443.18 923.41 404.81"/><polygon class="cls-25" points="989.86 454.22 989.86 535.45 923.41 497.08 923.41 415.85 989.86 454.22"/><polygon class="cls-25" points="938.55 424.6 938.55 497.08 989.86 526.71 1041.17 497.08 1041.17 424.6 989.86 454.22 938.55 424.6"/><polygon class="cls-25" points="989.86 454.22 989.86 526.71 938.55 497.08 938.55 424.6 989.86 454.22"/><polygon class="cls-26" points="923.41 415.85 923.41 497.08 989.86 535.45 1056.32 497.08 1056.32 415.85 989.86 454.22 923.41 415.85"/><polygon class="cls-7" points="989.86 443.18 923.41 404.81 989.86 366.45 1056.32 404.82 989.86 443.18"/><polygon class="cls-62" points="989.86 443.18 923.41 404.81 989.86 366.45 1056.32 404.82 989.86 443.18"/><polygon class="cls-63" points="1056.32 404.82 1056.32 415.85 989.86 454.22 989.86 443.18 1056.32 404.82"/><polygon class="cls-64" points="923.41 404.81 923.41 415.85 989.86 454.22 989.86 443.18 923.41 404.81"/><polygon class="cls-65" points="924.98 404.81 990.65 366.9 989.86 366.45 923.41 404.81 989.86 443.18 990.65 442.73 924.98 404.81"/><polygon class="cls-7" points="989.86 439.55 929.49 404.7 989.86 377.23 1050.23 404.7 989.86 439.55"/><polygon class="cls-7" points="929.49 402.05 929.49 404.7 989.86 439.55 989.86 436.91 929.49 402.05"/><polygon class="cls-7" points="989.86 436.91 929.49 402.05 989.86 367.2 1050.23 402.05 989.86 436.91"/><polygon class="cls-66" points="989.86 436.91 929.49 402.05 989.86 367.2 1050.23 402.05 989.86 436.91"/><polygon class="cls-67" points="1050.23 402.05 1050.23 404.7 989.86 439.55 989.86 436.91 1050.23 402.05"/><polygon class="cls-68" points="929.49 402.05 929.49 404.7 989.86 439.55 989.86 436.91 929.49 402.05"/><polygon class="cls-69" points="930.92 402.05 990.58 367.61 989.86 367.2 929.49 402.05 989.86 436.91 990.58 436.5 930.92 402.05"/><polygon class="cls-35" points="948.83 403.37 946.55 402.05 989.86 377.05 992.14 378.36 948.83 403.37"/><polygon class="cls-35" points="953.39 406 951.11 404.69 994.42 379.68 996.7 380.99 953.39 406"/><polygon class="cls-35" points="957.95 408.63 955.67 407.32 998.98 382.31 1001.26 383.63 957.95 408.63"/><polygon class="cls-35" points="962.51 411.27 960.23 409.95 1003.54 384.94 1005.82 386.26 962.51 411.27"/><polygon class="cls-35" points="967.07 413.9 964.78 412.58 1008.1 387.57 1010.38 388.89 967.07 413.9"/><polygon class="cls-35" points="971.63 416.53 969.35 415.21 1012.66 390.21 1014.94 391.52 971.63 416.53"/><polygon class="cls-35" points="976.18 419.16 973.9 417.85 1017.22 392.84 1019.5 394.16 976.18 419.16"/><polygon class="cls-35" points="980.74 421.8 978.46 420.48 1021.78 395.47 1024.06 396.79 980.74 421.8"/><polygon class="cls-35" points="985.3 424.43 983.02 423.11 1026.34 398.11 1028.62 399.42 985.3 424.43"/><polygon class="cls-35" points="989.86 427.06 987.58 425.75 1030.9 400.74 1033.18 402.05 989.86 427.06"/><polygon class="cls-36" points="989.86 377.05 992.14 378.36 989.86 379.68 989.86 377.05"/><polygon class="cls-36" points="994.42 379.68 996.7 380.99 994.42 382.31 994.42 379.68"/><polygon class="cls-36" points="998.98 382.31 1001.26 383.63 998.98 384.94 998.98 382.31"/><polygon class="cls-36" points="1003.54 384.94 1005.82 386.26 1003.54 387.57 1003.54 384.94"/><polygon class="cls-36" points="1008.1 387.57 1010.38 388.89 1008.1 390.21 1008.1 387.57"/><polygon class="cls-36" points="1012.66 390.21 1014.94 391.52 1012.66 392.84 1012.66 390.21"/><polygon class="cls-36" points="1017.22 392.84 1019.5 394.16 1017.22 395.47 1017.22 392.84"/><polygon class="cls-36" points="1021.78 395.47 1024.06 396.79 1021.78 398.11 1021.78 395.47"/><polygon class="cls-36" points="1026.34 398.11 1028.62 399.42 1026.34 400.74 1026.34 398.11"/><polygon class="cls-36" points="1030.9 400.74 1033.18 402.05 1030.9 403.37 1030.9 400.74"/><g class="cls-11"><polygon class="cls-4" points="948.83 403.37 946.55 402.05 989.86 377.05 992.14 378.36 948.83 403.37"/><polygon class="cls-4" points="953.39 406 951.11 404.69 994.42 379.68 996.7 380.99 953.39 406"/><polygon class="cls-4" points="957.95 408.63 955.67 407.32 998.98 382.31 1001.26 383.63 957.95 408.63"/><polygon class="cls-4" points="962.51 411.27 960.23 409.95 1003.54 384.94 1005.82 386.26 962.51 411.27"/><polygon class="cls-4" points="967.07 413.9 964.78 412.58 1008.1 387.57 1010.38 388.89 967.07 413.9"/><polygon class="cls-4" points="971.63 416.53 969.35 415.21 1012.66 390.21 1014.94 391.52 971.63 416.53"/><polygon class="cls-4" points="976.18 419.16 973.9 417.85 1017.22 392.84 1019.5 394.16 976.18 419.16"/><polygon class="cls-4" points="980.74 421.8 978.46 420.48 1021.78 395.47 1024.06 396.79 980.74 421.8"/><polygon class="cls-4" points="985.3 424.43 983.02 423.11 1026.34 398.11 1028.62 399.42 985.3 424.43"/><polygon class="cls-4" points="989.86 427.06 987.58 425.75 1030.9 400.74 1033.18 402.05 989.86 427.06"/></g><polygon class="cls-37" points="923.41 415.85 923.41 497.08 924.32 497.61 924.32 416.38 923.41 415.85"/><polygon class="cls-37" points="1056.32 415.85 1056.32 497.08 1055.4 497.61 1055.4 416.38 1056.32 415.85"/><polygon class="cls-37" points="989.86 454.22 989.86 454.22 988.29 453.31 988.29 534.56 989.86 535.45 989.86 535.45 989.86 535.45 989.86 535.45 989.86 535.45 991.43 534.56 991.43 453.31 989.86 454.22"/><polygon class="cls-26" points="924.32 489.08 984.75 451.26 941.66 426.39 924.32 435.87 924.32 489.08"/><polygon class="cls-26" points="937.87 505.43 988.29 476.78 988.29 497.61 954.94 515.29 937.87 505.43"/><g class="cls-38"><polygon class="cls-39" points="927.53 425.85 984.83 458.91 984.83 456.32 927.53 423.26 927.53 425.85"/><polygon class="cls-39" points="927.53 431.92 984.83 464.98 984.83 462.39 927.53 429.33 927.53 431.92"/><polygon class="cls-39" points="927.53 437.98 984.83 471.04 984.83 468.46 927.53 435.4 927.53 437.98"/><polygon class="cls-39" points="927.53 444.05 984.83 477.11 984.83 474.52 927.53 441.46 927.53 444.05"/><polygon class="cls-39" points="927.53 450.12 984.83 483.18 984.83 480.59 927.53 447.53 927.53 450.12"/><polygon class="cls-39" points="927.53 456.18 984.83 489.24 984.83 486.66 927.53 453.6 927.53 456.18"/><polygon class="cls-39" points="927.53 462.25 984.83 495.31 984.83 492.73 927.53 459.67 927.53 462.25"/><polygon class="cls-39" points="927.53 468.32 984.83 501.38 984.83 498.79 927.53 465.73 927.53 468.32"/><polygon class="cls-39" points="927.53 474.38 984.83 507.44 984.83 504.86 927.53 471.8 927.53 474.38"/><polygon class="cls-39" points="927.53 480.45 984.83 513.51 984.83 510.93 927.53 477.87 927.53 480.45"/><polygon class="cls-39" points="927.53 486.52 984.83 519.58 984.83 516.99 927.53 483.93 927.53 486.52"/><polygon class="cls-39" points="927.53 492.58 984.83 525.64 984.83 523.06 927.53 490 927.53 492.58"/></g><path class="cls-5" d="M1029.76,408.84a.72.72,0,0,1,0,1.37,2.63,2.63,0,0,1-2.38,0,.72.72,0,0,1,0-1.37A2.63,2.63,0,0,1,1029.76,408.84Z"/><path class="cls-5" d="M1033.47,406.69a.73.73,0,0,1,0,1.38,2.63,2.63,0,0,1-2.38,0,.73.73,0,0,1,0-1.38A2.63,2.63,0,0,1,1033.47,406.69Z"/><path class="cls-5" d="M1037.19,404.55a.73.73,0,0,1,0,1.38,2.65,2.65,0,0,1-2.39,0,.73.73,0,0,1,0-1.38A2.65,2.65,0,0,1,1037.19,404.55Z"/><path class="cls-54" d="M996.09,457.19a2.5,2.5,0,0,1-1.11,1.94c-.62.36-1.12.07-1.12-.65a2.48,2.48,0,0,1,1.12-1.94C995.59,456.19,996.09,456.48,996.09,457.19Z"/><path class="cls-54" d="M999.78,455.06a2.45,2.45,0,0,1-1.12,1.94c-.62.36-1.12.07-1.12-.64a2.47,2.47,0,0,1,1.12-1.94C999.28,454.06,999.78,454.35,999.78,455.06Z"/><path class="cls-54" d="M1003.46,452.94a2.48,2.48,0,0,1-1.12,1.94c-.62.35-1.12.06-1.12-.65a2.48,2.48,0,0,1,1.12-1.94C1003,451.94,1003.46,452.22,1003.46,452.94Z"/><polygon class="cls-54" points="1033.36 436.97 1005.16 453.25 1005.16 450.67 1033.36 434.39 1033.36 436.97"/><path class="cls-54" d="M996.09,463.26A2.5,2.5,0,0,1,995,465.2c-.62.35-1.12.06-1.12-.65a2.48,2.48,0,0,1,1.12-1.94C995.59,462.25,996.09,462.54,996.09,463.26Z"/><path class="cls-54" d="M999.78,461.13a2.47,2.47,0,0,1-1.12,1.94c-.62.36-1.12.07-1.12-.65a2.45,2.45,0,0,1,1.12-1.93C999.28,460.13,999.78,460.42,999.78,461.13Z"/><path class="cls-54" d="M1003.46,459a2.45,2.45,0,0,1-1.12,1.93c-.62.36-1.12.07-1.12-.64a2.47,2.47,0,0,1,1.12-1.94C1003,458,1003.46,458.29,1003.46,459Z"/><polygon class="cls-54" points="1033.36 443.04 1005.16 459.32 1005.16 456.73 1033.36 440.45 1033.36 443.04"/><path class="cls-54" d="M996.09,469.32a2.47,2.47,0,0,1-1.11,1.94c-.62.36-1.12.07-1.12-.64a2.47,2.47,0,0,1,1.12-1.94C995.59,468.32,996.09,468.61,996.09,469.32Z"/><path class="cls-54" d="M999.78,467.2a2.48,2.48,0,0,1-1.12,1.94c-.62.35-1.12.06-1.12-.65a2.48,2.48,0,0,1,1.12-1.94C999.28,466.2,999.78,466.48,999.78,467.2Z"/><path class="cls-54" d="M1003.46,465.07a2.47,2.47,0,0,1-1.12,1.94c-.62.36-1.12.07-1.12-.65a2.45,2.45,0,0,1,1.12-1.93C1003,464.07,1003.46,464.36,1003.46,465.07Z"/><polygon class="cls-54" points="1033.36 449.1 1005.16 465.38 1005.16 462.8 1033.36 446.52 1033.36 449.1"/><path class="cls-54" d="M996.09,475.39a2.48,2.48,0,0,1-1.11,1.94c-.62.36-1.12.07-1.12-.65a2.45,2.45,0,0,1,1.12-1.93C995.59,474.39,996.09,474.68,996.09,475.39Z"/><path class="cls-54" d="M999.78,473.27a2.45,2.45,0,0,1-1.12,1.93c-.62.36-1.12.07-1.12-.64a2.47,2.47,0,0,1,1.12-1.94C999.28,472.26,999.78,472.55,999.78,473.27Z"/><path class="cls-54" d="M1003.46,471.14a2.48,2.48,0,0,1-1.12,1.94c-.62.35-1.12.06-1.12-.65a2.48,2.48,0,0,1,1.12-1.94C1003,470.14,1003.46,470.42,1003.46,471.14Z"/><polygon class="cls-54" points="1033.36 455.17 1005.16 471.45 1005.16 468.87 1033.36 452.59 1033.36 455.17"/><path class="cls-54" d="M996.09,481.46A2.5,2.5,0,0,1,995,483.4c-.62.35-1.12.06-1.12-.65a2.48,2.48,0,0,1,1.12-1.94C995.59,480.45,996.09,480.74,996.09,481.46Z"/><path class="cls-54" d="M999.78,479.33a2.47,2.47,0,0,1-1.12,1.94c-.62.36-1.12.07-1.12-.65a2.45,2.45,0,0,1,1.12-1.93C999.28,478.33,999.78,478.62,999.78,479.33Z"/><path class="cls-54" d="M1003.46,477.21a2.45,2.45,0,0,1-1.12,1.93c-.62.36-1.12.07-1.12-.64a2.47,2.47,0,0,1,1.12-1.94C1003,476.2,1003.46,476.49,1003.46,477.21Z"/><polygon class="cls-54" points="1033.36 461.24 1005.16 477.52 1005.16 474.93 1033.36 458.65 1033.36 461.24"/><path class="cls-54" d="M996.09,487.52a2.47,2.47,0,0,1-1.11,1.94c-.62.36-1.12.07-1.12-.64a2.47,2.47,0,0,1,1.12-1.94C995.59,486.52,996.09,486.81,996.09,487.52Z"/><path class="cls-54" d="M999.78,485.4a2.48,2.48,0,0,1-1.12,1.94c-.62.35-1.12.06-1.12-.65a2.48,2.48,0,0,1,1.12-1.94C999.28,484.4,999.78,484.68,999.78,485.4Z"/><path class="cls-54" d="M1003.46,483.27a2.47,2.47,0,0,1-1.12,1.94c-.62.36-1.12.07-1.12-.65a2.45,2.45,0,0,1,1.12-1.93C1003,482.27,1003.46,482.56,1003.46,483.27Z"/><polygon class="cls-54" points="1033.36 467.31 1005.16 483.58 1005.16 481 1033.36 464.72 1033.36 467.31"/><path class="cls-54" d="M996.09,493.59a2.48,2.48,0,0,1-1.11,1.94c-.62.36-1.12.07-1.12-.65A2.45,2.45,0,0,1,995,493C995.59,492.59,996.09,492.88,996.09,493.59Z"/><path class="cls-54" d="M999.78,491.47a2.45,2.45,0,0,1-1.12,1.93c-.62.36-1.12.07-1.12-.64a2.47,2.47,0,0,1,1.12-1.94C999.28,490.46,999.78,490.75,999.78,491.47Z"/><path class="cls-54" d="M1003.46,489.34a2.48,2.48,0,0,1-1.12,1.94c-.62.35-1.12.07-1.12-.65a2.48,2.48,0,0,1,1.12-1.94C1003,488.34,1003.46,488.63,1003.46,489.34Z"/><polygon class="cls-54" points="1033.36 473.37 1005.16 489.65 1005.16 487.07 1033.36 470.79 1033.36 473.37"/><path class="cls-54" d="M996.09,499.66A2.5,2.5,0,0,1,995,501.6c-.62.35-1.12.06-1.12-.65A2.48,2.48,0,0,1,995,499C995.59,498.66,996.09,498.94,996.09,499.66Z"/><path class="cls-54" d="M999.78,497.53a2.47,2.47,0,0,1-1.12,1.94c-.62.36-1.12.07-1.12-.65a2.45,2.45,0,0,1,1.12-1.93C999.28,496.53,999.78,496.82,999.78,497.53Z"/><path class="cls-54" d="M1003.46,495.41a2.45,2.45,0,0,1-1.12,1.93c-.62.36-1.12.07-1.12-.64a2.47,2.47,0,0,1,1.12-1.94C1003,494.4,1003.46,494.69,1003.46,495.41Z"/><polygon class="cls-54" points="1033.36 479.44 1005.16 495.72 1005.16 493.13 1033.36 476.85 1033.36 479.44"/><path class="cls-54" d="M996.09,505.72a2.47,2.47,0,0,1-1.11,1.94c-.62.36-1.12.07-1.12-.64a2.47,2.47,0,0,1,1.12-1.94C995.59,504.72,996.09,505,996.09,505.72Z"/><path class="cls-54" d="M999.78,503.6a2.48,2.48,0,0,1-1.12,1.94c-.62.35-1.12.06-1.12-.65a2.48,2.48,0,0,1,1.12-1.94C999.28,502.6,999.78,502.88,999.78,503.6Z"/><path class="cls-54" d="M1003.46,501.47a2.47,2.47,0,0,1-1.12,1.94c-.62.36-1.12.07-1.12-.65a2.45,2.45,0,0,1,1.12-1.93C1003,500.47,1003.46,500.76,1003.46,501.47Z"/><polygon class="cls-54" points="1033.36 485.5 1005.16 501.79 1005.16 499.2 1033.36 482.92 1033.36 485.5"/><path class="cls-54" d="M996.09,511.79a2.48,2.48,0,0,1-1.11,1.94c-.62.36-1.12.07-1.12-.65a2.45,2.45,0,0,1,1.12-1.93C995.59,510.79,996.09,511.08,996.09,511.79Z"/><path class="cls-54" d="M999.78,509.67a2.45,2.45,0,0,1-1.12,1.93c-.62.36-1.12.07-1.12-.64a2.47,2.47,0,0,1,1.12-1.94C999.28,508.66,999.78,509,999.78,509.67Z"/><path class="cls-54" d="M1003.46,507.54a2.48,2.48,0,0,1-1.12,1.94c-.62.35-1.12.07-1.12-.65a2.48,2.48,0,0,1,1.12-1.94C1003,506.54,1003.46,506.83,1003.46,507.54Z"/><polygon class="cls-54" points="1033.36 491.57 1005.16 507.85 1005.16 505.27 1033.36 488.99 1033.36 491.57"/><path class="cls-54" d="M996.09,517.86A2.5,2.5,0,0,1,995,519.8c-.62.35-1.12.06-1.12-.65a2.48,2.48,0,0,1,1.12-1.94C995.59,516.86,996.09,517.14,996.09,517.86Z"/><path class="cls-54" d="M999.78,515.73a2.47,2.47,0,0,1-1.12,1.94c-.62.36-1.12.07-1.12-.65a2.45,2.45,0,0,1,1.12-1.93C999.28,514.73,999.78,515,999.78,515.73Z"/><path class="cls-54" d="M1003.46,513.61a2.45,2.45,0,0,1-1.12,1.93c-.62.36-1.12.07-1.12-.64a2.47,2.47,0,0,1,1.12-1.94C1003,512.6,1003.46,512.89,1003.46,513.61Z"/><polygon class="cls-54" points="1033.36 497.64 1005.16 513.92 1005.16 511.33 1033.36 495.05 1033.36 497.64"/><path class="cls-54" d="M996.09,523.93a2.47,2.47,0,0,1-1.11,1.93c-.62.36-1.12.07-1.12-.64a2.47,2.47,0,0,1,1.12-1.94C995.59,522.92,996.09,523.21,996.09,523.93Z"/><path class="cls-54" d="M999.78,521.8a2.48,2.48,0,0,1-1.12,1.94c-.62.35-1.12.07-1.12-.65a2.48,2.48,0,0,1,1.12-1.94C999.28,520.8,999.78,521.09,999.78,521.8Z"/><path class="cls-54" d="M1003.46,519.67a2.47,2.47,0,0,1-1.12,1.94c-.62.36-1.12.07-1.12-.64a2.45,2.45,0,0,1,1.12-1.94C1003,518.67,1003.46,519,1003.46,519.67Z"/><polygon class="cls-54" points="1033.36 503.7 1005.16 519.99 1005.16 517.4 1033.36 501.12 1033.36 503.7"/><polygon class="cls-55" points="1052.57 492.72 1036.01 502.28 1036.01 433.1 1052.57 423.55 1052.57 492.72"/><path class="cls-70" d="M1034.31,285.6V405.24h0a.83.83,0,0,0,.49.69,2.65,2.65,0,0,0,2.39,0,.85.85,0,0,0,.49-.69V285.6Z"/><path class="cls-54" d="M1154.08,365.74a2.49,2.49,0,0,1-1.12,1.94c-.62.36-1.12.07-1.12-.65a2.45,2.45,0,0,1,1.12-1.93C1153.57,364.74,1154.08,365,1154.08,365.74Z"/><path class="cls-54" d="M1157.76,363.62a2.45,2.45,0,0,1-1.12,1.93c-.62.36-1.12.07-1.12-.64a2.47,2.47,0,0,1,1.12-1.94C1157.26,362.61,1157.76,362.9,1157.76,363.62Z"/><path class="cls-54" d="M1161.44,361.49a2.48,2.48,0,0,1-1.12,1.94c-.62.36-1.12.07-1.12-.65a2.48,2.48,0,0,1,1.12-1.94C1160.94,360.49,1161.44,360.78,1161.44,361.49Z"/><polygon class="cls-54" points="1191.34 345.52 1163.14 361.8 1163.14 359.22 1191.34 342.94 1191.34 345.52"/><path class="cls-54" d="M1154.08,371.81a2.51,2.51,0,0,1-1.12,1.94c-.62.35-1.12.07-1.12-.65a2.48,2.48,0,0,1,1.12-1.94C1153.57,370.81,1154.08,371.1,1154.08,371.81Z"/><path class="cls-54" d="M1157.76,369.68a2.47,2.47,0,0,1-1.12,1.94c-.62.36-1.12.07-1.12-.64a2.45,2.45,0,0,1,1.12-1.94C1157.26,368.68,1157.76,369,1157.76,369.68Z"/><path class="cls-54" d="M1161.44,367.56a2.45,2.45,0,0,1-1.12,1.93c-.62.36-1.12.07-1.12-.64a2.48,2.48,0,0,1,1.12-1.94C1160.94,366.55,1161.44,366.84,1161.44,367.56Z"/><polygon class="cls-54" points="1191.34 351.59 1163.14 367.87 1163.14 365.28 1191.34 349 1191.34 351.59"/><path class="cls-54" d="M1154.08,377.88a2.48,2.48,0,0,1-1.12,1.93c-.62.36-1.12.07-1.12-.64a2.47,2.47,0,0,1,1.12-1.94C1153.57,376.87,1154.08,377.16,1154.08,377.88Z"/><path class="cls-54" d="M1157.76,375.75a2.48,2.48,0,0,1-1.12,1.94c-.62.35-1.12.07-1.12-.65a2.48,2.48,0,0,1,1.12-1.94C1157.26,374.75,1157.76,375,1157.76,375.75Z"/><path class="cls-54" d="M1161.44,373.62a2.47,2.47,0,0,1-1.12,1.94c-.62.36-1.12.07-1.12-.64a2.45,2.45,0,0,1,1.12-1.94C1160.94,372.62,1161.44,372.91,1161.44,373.62Z"/><polygon class="cls-54" points="1191.34 357.66 1163.14 373.94 1163.14 371.35 1191.34 355.07 1191.34 357.66"/><path class="cls-54" d="M1154.08,383.94a2.49,2.49,0,0,1-1.12,1.94c-.62.36-1.12.07-1.12-.65a2.45,2.45,0,0,1,1.12-1.93C1153.57,382.94,1154.08,383.23,1154.08,383.94Z"/><path class="cls-54" d="M1157.76,381.82a2.45,2.45,0,0,1-1.12,1.93c-.62.36-1.12.07-1.12-.64a2.47,2.47,0,0,1,1.12-1.94C1157.26,380.81,1157.76,381.1,1157.76,381.82Z"/><path class="cls-54" d="M1161.44,379.69a2.48,2.48,0,0,1-1.12,1.94c-.62.36-1.12.07-1.12-.65a2.48,2.48,0,0,1,1.12-1.94C1160.94,378.69,1161.44,379,1161.44,379.69Z"/><polygon class="cls-54" points="1191.34 363.72 1163.14 380 1163.14 377.42 1191.34 361.14 1191.34 363.72"/><path class="cls-54" d="M1154.08,390A2.51,2.51,0,0,1,1153,392c-.62.35-1.12.07-1.12-.65a2.48,2.48,0,0,1,1.12-1.94C1153.57,389,1154.08,389.3,1154.08,390Z"/><path class="cls-54" d="M1157.76,387.88a2.47,2.47,0,0,1-1.12,1.94c-.62.36-1.12.07-1.12-.64a2.45,2.45,0,0,1,1.12-1.94C1157.26,386.88,1157.76,387.17,1157.76,387.88Z"/><path class="cls-54" d="M1161.44,385.76a2.48,2.48,0,0,1-1.12,1.94c-.62.35-1.12.06-1.12-.65a2.48,2.48,0,0,1,1.12-1.94C1160.94,384.75,1161.44,385,1161.44,385.76Z"/><polygon class="cls-54" points="1191.34 369.79 1163.14 386.07 1163.14 383.48 1191.34 367.2 1191.34 369.79"/><path class="cls-54" d="M1154.08,396.08A2.48,2.48,0,0,1,1153,398c-.62.36-1.12.07-1.12-.64a2.47,2.47,0,0,1,1.12-1.94C1153.57,395.07,1154.08,395.36,1154.08,396.08Z"/><path class="cls-54" d="M1157.76,394a2.48,2.48,0,0,1-1.12,1.94c-.62.36-1.12.07-1.12-.65a2.48,2.48,0,0,1,1.12-1.94C1157.26,393,1157.76,393.24,1157.76,394Z"/><path class="cls-54" d="M1161.44,391.82a2.45,2.45,0,0,1-1.12,1.94c-.62.36-1.12.07-1.12-.64a2.45,2.45,0,0,1,1.12-1.94C1160.94,390.82,1161.44,391.11,1161.44,391.82Z"/><polygon class="cls-54" points="1191.34 375.86 1163.14 392.14 1163.14 389.55 1191.34 373.27 1191.34 375.86"/><path class="cls-54" d="M1154.08,402.14a2.49,2.49,0,0,1-1.12,1.94c-.62.36-1.12.07-1.12-.65a2.45,2.45,0,0,1,1.12-1.93C1153.57,401.14,1154.08,401.43,1154.08,402.14Z"/><path class="cls-54" d="M1157.76,400a2.45,2.45,0,0,1-1.12,1.93c-.62.36-1.12.07-1.12-.64a2.48,2.48,0,0,1,1.12-1.94C1157.26,399,1157.76,399.3,1157.76,400Z"/><path class="cls-54" d="M1161.44,397.89a2.48,2.48,0,0,1-1.12,1.94c-.62.36-1.12.07-1.12-.65a2.48,2.48,0,0,1,1.12-1.94C1160.94,396.89,1161.44,397.18,1161.44,397.89Z"/><polygon class="cls-54" points="1191.34 381.92 1163.14 398.2 1163.14 395.62 1191.34 379.34 1191.34 381.92"/><path class="cls-54" d="M1154.08,408.21a2.51,2.51,0,0,1-1.12,1.94c-.62.35-1.12.07-1.12-.65a2.48,2.48,0,0,1,1.12-1.94C1153.57,407.21,1154.08,407.5,1154.08,408.21Z"/><path class="cls-54" d="M1157.76,406.08a2.47,2.47,0,0,1-1.12,1.94c-.62.36-1.12.07-1.12-.64a2.45,2.45,0,0,1,1.12-1.94C1157.26,405.08,1157.76,405.37,1157.76,406.08Z"/><path class="cls-54" d="M1161.44,404a2.48,2.48,0,0,1-1.12,1.94c-.62.35-1.12.06-1.12-.65a2.48,2.48,0,0,1,1.12-1.94C1160.94,403,1161.44,403.24,1161.44,404Z"/><polygon class="cls-54" points="1191.34 387.99 1163.14 404.27 1163.14 401.69 1191.34 385.4 1191.34 387.99"/><path class="cls-54" d="M1154.08,414.28a2.48,2.48,0,0,1-1.12,1.93c-.62.36-1.12.07-1.12-.64a2.47,2.47,0,0,1,1.12-1.94C1153.57,413.27,1154.08,413.56,1154.08,414.28Z"/><path class="cls-54" d="M1157.76,412.15a2.48,2.48,0,0,1-1.12,1.94c-.62.36-1.12.07-1.12-.65a2.48,2.48,0,0,1,1.12-1.94C1157.26,411.15,1157.76,411.44,1157.76,412.15Z"/><path class="cls-54" d="M1161.44,410a2.45,2.45,0,0,1-1.12,1.94c-.62.36-1.12.07-1.12-.64a2.45,2.45,0,0,1,1.12-1.94C1160.94,409,1161.44,409.31,1161.44,410Z"/><polygon class="cls-54" points="1191.34 394.06 1163.14 410.34 1163.14 407.75 1191.34 391.47 1191.34 394.06"/><path class="cls-54" d="M1154.08,420.34a2.49,2.49,0,0,1-1.12,1.94c-.62.36-1.12.07-1.12-.64a2.45,2.45,0,0,1,1.12-1.94C1153.57,419.34,1154.08,419.63,1154.08,420.34Z"/><path class="cls-54" d="M1157.76,418.22a2.48,2.48,0,0,1-1.12,1.94c-.62.35-1.12.06-1.12-.65a2.48,2.48,0,0,1,1.12-1.94C1157.26,417.21,1157.76,417.5,1157.76,418.22Z"/><path class="cls-54" d="M1161.44,416.09a2.48,2.48,0,0,1-1.12,1.94c-.62.36-1.12.07-1.12-.65a2.48,2.48,0,0,1,1.12-1.94C1160.94,415.09,1161.44,415.38,1161.44,416.09Z"/><polygon class="cls-54" points="1191.34 400.12 1163.14 416.4 1163.14 413.82 1191.34 397.54 1191.34 400.12"/><path class="cls-54" d="M1154.08,426.41a2.51,2.51,0,0,1-1.12,1.94c-.62.35-1.12.07-1.12-.65a2.48,2.48,0,0,1,1.12-1.94C1153.57,425.41,1154.08,425.7,1154.08,426.41Z"/><path class="cls-54" d="M1157.76,424.28a2.47,2.47,0,0,1-1.12,1.94c-.62.36-1.12.07-1.12-.64a2.45,2.45,0,0,1,1.12-1.94C1157.26,423.28,1157.76,423.57,1157.76,424.28Z"/><path class="cls-54" d="M1161.44,422.16a2.48,2.48,0,0,1-1.12,1.94c-.62.35-1.12.06-1.12-.65a2.48,2.48,0,0,1,1.12-1.94C1160.94,421.15,1161.44,421.44,1161.44,422.16Z"/><polygon class="cls-54" points="1191.34 406.19 1163.14 422.47 1163.14 419.88 1191.34 403.61 1191.34 406.19"/><path class="cls-54" d="M1154.08,432.48a2.48,2.48,0,0,1-1.12,1.93c-.62.36-1.12.07-1.12-.64a2.47,2.47,0,0,1,1.12-1.94C1153.57,431.47,1154.08,431.76,1154.08,432.48Z"/><path class="cls-54" d="M1157.76,430.35a2.48,2.48,0,0,1-1.12,1.94c-.62.36-1.12.07-1.12-.65a2.48,2.48,0,0,1,1.12-1.94C1157.26,429.35,1157.76,429.64,1157.76,430.35Z"/><path class="cls-54" d="M1161.44,428.22a2.45,2.45,0,0,1-1.12,1.94c-.62.36-1.12.07-1.12-.64a2.45,2.45,0,0,1,1.12-1.94C1160.94,427.22,1161.44,427.51,1161.44,428.22Z"/><polygon class="cls-54" points="1191.34 412.26 1163.14 428.54 1163.14 425.95 1191.34 409.67 1191.34 412.26"/><polygon class="cls-55" points="1210.55 401.27 1193.99 410.83 1193.99 341.65 1210.55 332.1 1210.55 401.27"/><polygon class="cls-26" points="834.93 565.93 800.92 546.3 847.03 519.68 881.04 539.31 834.93 565.93"/><polygon class="cls-54" points="853.58 529.78 845.83 525.3 847.33 524.44 855.08 528.91 853.58 529.78"/><polygon class="cls-54" points="859.54 533.22 855.96 531.15 857.46 530.28 861.04 532.35 859.54 533.22"/><polygon class="cls-54" points="871.29 540 861.92 534.59 863.42 533.73 872.79 539.14 871.29 540"/><polygon class="cls-54" points="850.25 531.7 842.5 527.23 844 526.36 851.75 530.84 850.25 531.7"/><polygon class="cls-54" points="856.21 535.14 852.63 533.08 854.13 532.21 857.71 534.28 856.21 535.14"/><polygon class="cls-54" points="867.96 541.93 858.58 536.51 860.08 535.65 869.46 541.06 867.96 541.93"/><polygon class="cls-54" points="846.92 533.63 839.17 529.15 840.67 528.29 848.42 532.76 846.92 533.63"/><polygon class="cls-54" points="852.88 537.07 849.29 535 850.79 534.13 854.38 536.2 852.88 537.07"/><polygon class="cls-54" points="864.63 543.85 855.25 538.44 856.75 537.57 866.12 542.99 864.63 543.85"/><polygon class="cls-54" points="843.58 535.55 835.83 531.08 837.33 530.21 845.08 534.69 843.58 535.55"/><polygon class="cls-54" points="849.54 538.99 845.96 536.92 847.46 536.06 851.04 538.13 849.54 538.99"/><polygon class="cls-54" points="861.29 545.78 851.92 540.36 853.42 539.5 862.79 544.91 861.29 545.78"/><polygon class="cls-54" points="840.25 537.48 832.5 533 834 532.14 841.75 536.61 840.25 537.48"/><polygon class="cls-54" points="846.21 540.92 842.63 538.85 844.13 537.98 847.71 540.05 846.21 540.92"/><polygon class="cls-54" points="857.96 547.7 848.58 542.29 850.08 541.42 859.46 546.84 857.96 547.7"/><polygon class="cls-54" points="836.92 539.4 829.17 534.93 830.67 534.06 838.42 538.54 836.92 539.4"/><polygon class="cls-54" points="842.88 542.84 839.29 540.77 840.79 539.91 844.38 541.98 842.88 542.84"/><polygon class="cls-54" points="854.63 549.63 845.25 544.21 846.75 543.35 856.13 548.76 854.63 549.63"/><polygon class="cls-54" points="833.58 541.33 825.83 536.85 827.33 535.99 835.08 540.46 833.58 541.33"/><polygon class="cls-54" points="839.54 544.77 835.96 542.7 837.46 541.83 841.04 543.9 839.54 544.77"/><polygon class="cls-54" points="851.29 551.55 841.92 546.14 843.42 545.27 852.79 550.68 851.29 551.55"/><polygon class="cls-54" points="830.25 543.25 822.5 538.78 824 537.91 831.75 542.38 830.25 543.25"/><polygon class="cls-54" points="836.21 546.69 832.63 544.62 834.13 543.75 837.71 545.82 836.21 546.69"/><polygon class="cls-54" points="847.96 553.47 838.58 548.06 840.08 547.2 849.46 552.61 847.96 553.47"/><polygon class="cls-54" points="826.92 545.17 819.17 540.7 820.67 539.83 828.42 544.31 826.92 545.17"/><polygon class="cls-54" points="832.88 548.62 829.29 546.55 830.79 545.68 834.38 547.75 832.88 548.62"/><polygon class="cls-54" points="844.63 555.4 835.25 549.99 836.75 549.12 846.13 554.53 844.63 555.4"/><polygon class="cls-54" points="823.59 547.1 815.84 542.63 817.34 541.76 825.08 546.23 823.59 547.1"/><polygon class="cls-54" points="829.54 550.54 825.96 548.47 827.46 547.6 831.04 549.67 829.54 550.54"/><polygon class="cls-54" points="841.29 557.32 831.92 551.91 833.42 551.04 842.79 556.46 841.29 557.32"/><polygon class="cls-54" points="820.25 549.02 812.5 544.55 814 543.68 821.75 548.16 820.25 549.02"/><polygon class="cls-54" points="826.21 552.46 822.63 550.39 824.13 549.53 827.71 551.6 826.21 552.46"/><polygon class="cls-54" points="837.96 559.25 828.59 553.84 830.08 552.97 839.46 558.38 837.96 559.25"/><polygon class="cls-54" points="816.92 550.95 809.17 546.47 810.67 545.61 818.42 550.08 816.92 550.95"/><polygon class="cls-54" points="822.88 554.39 819.29 552.32 820.79 551.45 824.38 553.52 822.88 554.39"/><polygon class="cls-54" points="834.63 561.17 825.25 555.76 826.75 554.89 836.13 560.31 834.63 561.17"/><polygon class="cls-26" points="881.9 593.05 847.89 573.41 894 546.79 928.01 566.43 881.9 593.05"/><polygon class="cls-54" points="900.55 556.9 892.8 552.42 894.3 551.56 902.05 556.03 900.55 556.9"/><polygon class="cls-54" points="906.51 560.34 902.93 558.27 904.43 557.4 908.01 559.47 906.51 560.34"/><polygon class="cls-54" points="918.26 567.12 908.89 561.71 910.39 560.84 919.76 566.25 918.26 567.12"/><polygon class="cls-54" points="897.22 558.82 889.47 554.35 890.97 553.48 898.72 557.96 897.22 558.82"/><polygon class="cls-54" points="903.18 562.26 899.59 560.19 901.09 559.33 904.68 561.4 903.18 562.26"/><polygon class="cls-54" points="914.93 569.05 905.55 563.63 907.05 562.77 916.43 568.18 914.93 569.05"/><polygon class="cls-54" points="893.89 560.75 886.14 556.27 887.64 555.41 895.39 559.88 893.89 560.75"/><polygon class="cls-54" points="899.84 564.19 896.26 562.12 897.76 561.25 901.34 563.32 899.84 564.19"/><polygon class="cls-54" points="911.59 570.97 902.22 565.56 903.72 564.69 913.09 570.1 911.59 570.97"/><polygon class="cls-54" points="890.55 562.67 882.8 558.2 884.3 557.33 892.05 561.8 890.55 562.67"/><polygon class="cls-54" points="896.51 566.11 892.93 564.04 894.43 563.18 898.01 565.25 896.51 566.11"/><polygon class="cls-54" points="908.26 572.89 898.89 567.48 900.39 566.62 909.76 572.03 908.26 572.89"/><polygon class="cls-54" points="887.22 564.6 879.47 560.12 880.97 559.25 888.72 563.73 887.22 564.6"/><polygon class="cls-54" points="893.18 568.03 889.6 565.97 891.1 565.1 894.68 567.17 893.18 568.03"/><polygon class="cls-54" points="904.93 574.82 895.55 569.41 897.05 568.54 906.43 573.95 904.93 574.82"/><polygon class="cls-54" points="883.89 566.52 876.14 562.04 877.64 561.18 885.39 565.65 883.89 566.52"/><polygon class="cls-54" points="889.85 569.96 886.26 567.89 887.76 567.02 891.35 569.09 889.85 569.96"/><polygon class="cls-54" points="901.6 576.74 892.22 571.33 893.72 570.47 903.1 575.88 901.6 576.74"/><polygon class="cls-54" points="880.55 568.44 872.8 563.97 874.3 563.1 882.05 567.58 880.55 568.44"/><polygon class="cls-54" points="886.51 571.88 882.93 569.82 884.43 568.95 888.01 571.02 886.51 571.88"/><polygon class="cls-54" points="898.26 578.67 888.89 573.25 890.39 572.39 899.76 577.8 898.26 578.67"/><polygon class="cls-54" points="877.22 570.37 869.47 565.89 870.97 565.03 878.72 569.5 877.22 570.37"/><polygon class="cls-54" points="883.18 573.81 879.6 571.74 881.1 570.87 884.68 572.94 883.18 573.81"/><polygon class="cls-54" points="894.93 580.59 885.55 575.18 887.05 574.31 896.43 579.73 894.93 580.59"/><polygon class="cls-54" points="873.89 572.29 866.14 567.82 867.64 566.95 875.39 571.43 873.89 572.29"/><polygon class="cls-54" points="879.85 575.73 876.26 573.66 877.76 572.8 881.35 574.87 879.85 575.73"/><polygon class="cls-54" points="891.6 582.52 882.22 577.1 883.72 576.24 893.1 581.65 891.6 582.52"/><polygon class="cls-54" points="870.55 574.22 862.8 569.74 864.3 568.88 872.05 573.35 870.55 574.22"/><polygon class="cls-54" points="876.51 577.66 872.93 575.59 874.43 574.72 878.01 576.79 876.51 577.66"/><polygon class="cls-54" points="888.26 584.44 878.89 579.03 880.39 578.16 889.76 583.58 888.26 584.44"/><polygon class="cls-54" points="867.22 576.14 859.47 571.67 860.97 570.8 868.72 575.27 867.22 576.14"/><polygon class="cls-54" points="873.18 579.58 869.6 577.51 871.1 576.65 874.68 578.72 873.18 579.58"/><polygon class="cls-54" points="884.93 586.37 875.55 580.95 877.05 580.09 886.43 585.5 884.93 586.37"/><polygon class="cls-54" points="863.89 578.07 856.14 573.59 857.64 572.73 865.39 577.2 863.89 578.07"/><polygon class="cls-54" points="869.85 581.51 866.26 579.44 867.76 578.57 871.35 580.64 869.85 581.51"/><polygon class="cls-54" points="881.6 588.29 872.22 582.88 873.72 582.01 883.1 587.42 881.6 588.29"/><polygon class="cls-26" points="928.87 620.17 894.86 600.53 940.97 573.91 974.98 593.55 928.87 620.17"/><polygon class="cls-54" points="947.52 584.01 939.77 579.54 941.27 578.67 949.02 583.15 947.52 584.01"/><polygon class="cls-54" points="953.48 587.46 949.9 585.39 951.4 584.52 954.98 586.59 953.48 587.46"/><polygon class="cls-54" points="965.23 594.24 955.86 588.83 957.36 587.96 966.73 593.37 965.23 594.24"/><polygon class="cls-54" points="944.19 585.94 936.44 581.47 937.94 580.6 945.69 585.07 944.19 585.94"/><polygon class="cls-54" points="950.15 589.38 946.56 587.31 948.06 586.45 951.65 588.51 950.15 589.38"/><polygon class="cls-54" points="961.9 596.16 952.52 590.75 954.02 589.88 963.4 595.3 961.9 596.16"/><polygon class="cls-54" points="940.86 587.86 933.11 583.39 934.61 582.52 942.36 587 940.86 587.86"/><polygon class="cls-54" points="946.81 591.3 943.23 589.24 944.73 588.37 948.31 590.44 946.81 591.3"/><polygon class="cls-54" points="958.56 598.09 949.19 592.67 950.69 591.81 960.06 597.22 958.56 598.09"/><polygon class="cls-54" points="937.52 589.79 929.77 585.31 931.27 584.45 939.02 588.92 937.52 589.79"/><polygon class="cls-54" points="943.48 593.23 939.9 591.16 941.4 590.29 944.98 592.36 943.48 593.23"/><polygon class="cls-54" points="955.23 600.01 945.86 594.6 947.36 593.73 956.73 599.15 955.23 600.01"/><polygon class="cls-54" points="934.19 591.71 926.44 587.24 927.94 586.37 935.69 590.85 934.19 591.71"/><polygon class="cls-54" points="940.15 595.15 936.57 593.08 938.06 592.22 941.65 594.29 940.15 595.15"/><polygon class="cls-54" points="951.9 601.94 942.52 596.52 944.02 595.66 953.4 601.07 951.9 601.94"/><polygon class="cls-54" points="930.86 593.64 923.11 589.16 924.61 588.3 932.36 592.77 930.86 593.64"/><polygon class="cls-54" points="936.82 597.08 933.23 595.01 934.73 594.14 938.32 596.21 936.82 597.08"/><polygon class="cls-54" points="948.56 603.86 939.19 598.45 940.69 597.58 950.06 603 948.56 603.86"/><polygon class="cls-54" points="927.52 595.56 919.77 591.09 921.27 590.22 929.02 594.7 927.52 595.56"/><polygon class="cls-54" points="933.48 599 929.9 596.93 931.4 596.07 934.98 598.14 933.48 599"/><polygon class="cls-54" points="945.23 605.78 935.86 600.37 937.36 599.51 946.73 604.92 945.23 605.78"/><polygon class="cls-54" points="924.19 597.49 916.44 593.01 917.94 592.15 925.69 596.62 924.19 597.49"/><polygon class="cls-54" points="930.15 600.93 926.57 598.86 928.07 597.99 931.65 600.06 930.15 600.93"/><polygon class="cls-54" points="941.9 607.71 932.52 602.3 934.02 601.43 943.4 606.84 941.9 607.71"/><polygon class="cls-54" points="920.86 599.41 913.11 594.94 914.61 594.07 922.36 598.54 920.86 599.41"/><polygon class="cls-54" points="926.82 602.85 923.23 600.78 924.73 599.92 928.32 601.99 926.82 602.85"/><polygon class="cls-54" points="938.57 609.63 929.19 604.22 930.69 603.36 940.07 608.77 938.57 609.63"/><polygon class="cls-54" points="917.52 601.34 909.77 596.86 911.27 596 919.02 600.47 917.52 601.34"/><polygon class="cls-54" points="923.48 604.77 919.9 602.71 921.4 601.84 924.98 603.91 923.48 604.77"/><polygon class="cls-54" points="935.23 611.56 925.86 606.15 927.36 605.28 936.73 610.69 935.23 611.56"/><polygon class="cls-54" points="914.19 603.26 906.44 598.78 907.94 597.92 915.69 602.39 914.19 603.26"/><polygon class="cls-54" points="920.15 606.7 916.57 604.63 918.07 603.76 921.65 605.83 920.15 606.7"/><polygon class="cls-54" points="931.9 613.48 922.52 608.07 924.02 607.21 933.4 612.62 931.9 613.48"/><polygon class="cls-54" points="910.86 605.18 903.11 600.71 904.61 599.84 912.36 604.32 910.86 605.18"/><polygon class="cls-54" points="916.82 608.62 913.23 606.55 914.73 605.69 918.32 607.76 916.82 608.62"/><polygon class="cls-54" points="928.57 615.41 919.19 610 920.69 609.13 930.07 614.54 928.57 615.41"/><polygon class="cls-26" points="911.25 557.03 910.76 556.19 948.76 534.25 949.24 535.1 911.25 557.03"/><polygon class="cls-26" points="958.22 584.15 957.73 583.31 978.38 571.39 884.6 517.25 863.46 529.45 862.98 528.6 884.6 516.12 884.84 516.26 980.32 571.39 958.22 584.15"/><path class="cls-54" d="M1003.1,621.75a.54.54,0,0,1-.27-.07l-20.08-11.59a.56.56,0,0,1-.2-.75.54.54,0,0,1,.75-.2l20.08,11.59a.55.55,0,0,1,.2.75A.56.56,0,0,1,1003.1,621.75Z"/><path class="cls-54" d="M1088.85,572a.53.53,0,0,1-.27-.08l-20.08-11.59a.54.54,0,0,1-.2-.74.53.53,0,0,1,.75-.2l20.07,11.59a.52.52,0,0,1,.2.74A.53.53,0,0,1,1088.85,572Z"/><path class="cls-54" d="M1173.32,523.17a.57.57,0,0,1-.28-.08L1153,511.5a.55.55,0,0,1,.55-.95l20.07,11.59a.55.55,0,0,1,.2.75A.53.53,0,0,1,1173.32,523.17Z"/><path class="cls-5" d="M1110,653.32a11,11,0,0,1-5.38-1.25h0l-38.5-22.23a4.19,4.19,0,0,1-2.38-3.57c0-1.64,1.17-3.25,3.2-4.43l36.86-21.28c3.66-2.11,9-2.32,12.23-.47l38.5,22.23a4.16,4.16,0,0,1,2.38,3.56c0,1.64-1.16,3.26-3.2,4.43l-36.86,21.28A14,14,0,0,1,1110,653.32Zm-4.57-2.66c2.7,1.56,7.46,1.35,10.61-.47l36.86-21.28c1.52-.88,2.39-2,2.39-3a2.67,2.67,0,0,0-1.57-2.16l-38.5-22.23c-2.7-1.56-7.46-1.35-10.61.47l-36.86,21.29c-1.52.87-2.39,2-2.39,3a2.69,2.69,0,0,0,1.57,2.16Z"/><path class="cls-7" d="M1167.12,595.63v-8.92h-23L1116.9,571c-3.63-2.09-10-1.83-14.17.59l-26.19,15.12h-23v9.43h0c-.1,1.42.69,2.79,2.43,3.79l47.79,27.6c3.63,2.09,10,1.83,14.17-.59l45.75-26.42C1166.09,599.13,1167.26,597.32,1167.12,595.63Z"/><path class="cls-71" d="M1167.12,595.63v-8.92h-23L1116.9,571c-3.63-2.09-10-1.83-14.17.59l-26.19,15.12h-23v9.43h0c-.1,1.42.69,2.79,2.43,3.79l47.79,27.6c3.63,2.09,10,1.83,14.17-.59l45.75-26.42C1166.09,599.13,1167.26,597.32,1167.12,595.63Z"/><path class="cls-72" d="M1116.9,571a12.9,12.9,0,0,0-6.58-1.4v59.33a16.28,16.28,0,0,0,7.6-2l45.75-26.42c2.42-1.39,3.59-3.2,3.45-4.89v-8.92h-23Z"/><path class="cls-7" d="M1103.75,618.1,1056,590.51c-3.63-2.1-3.17-5.76,1-8.18l45.75-26.42c4.2-2.42,10.54-2.68,14.17-.58l47.79,27.59c3.63,2.09,3.18,5.76-1,8.18l-45.75,26.41C1113.73,619.93,1107.38,620.2,1103.75,618.1Z"/><path class="cls-73" d="M1103.75,618.1,1056,590.51c-3.63-2.1-3.17-5.76,1-8.18l45.75-26.42c4.2-2.42,10.54-2.68,14.17-.58l47.79,27.59c3.63,2.09,3.18,5.76-1,8.18l-45.75,26.41C1113.73,619.93,1107.38,620.2,1103.75,618.1Z"/><path class="cls-74" d="M1105,612l-38.5-22.23c-2.93-1.69-2.56-4.64.82-6.59l36.86-21.28c3.38-1.95,8.49-2.16,11.41-.48l38.51,22.23c2.92,1.69,2.56,4.64-.82,6.59l-36.87,21.29C1113.07,613.48,1108,613.69,1105,612Z"/><path class="cls-35" d="M1067.35,586.06l36.86-21.28c3.38-1.95,8.49-2.16,11.41-.47l38.51,22.23a4.36,4.36,0,0,1,1.57,1.45c.84-1.56.35-3.22-1.57-4.34l-38.51-22.23c-2.92-1.68-8-1.47-11.41.48l-36.86,21.28c-2.55,1.47-3.38,3.51-2.39,5.14A6.1,6.1,0,0,1,1067.35,586.06Z"/><path class="cls-75" d="M1105.36,618.1l-47.79-27.59c-3.63-2.1-4.5-5.18,1-8.18l45.75-26.42a16.29,16.29,0,0,1,7.17-2,16.76,16.76,0,0,0-8.78,2L1057,582.33c-4.19,2.42-4.65,6.08-1,8.18l47.79,27.59a13.12,13.12,0,0,0,7,1.39A12.06,12.06,0,0,1,1105.36,618.1Z"/><path class="cls-76" d="M1163.67,595.08l-45.75,26.42c-4.19,2.42-10.54,2.68-14.17.58L1056,594.49c-1.74-1-2.53-2.37-2.43-3.79h0v1.95h0c-.1,1.42.69,2.79,2.43,3.8L1103.75,624c3.63,2.09,10,1.83,14.17-.59L1163.67,597c2.42-1.39,3.59-3.2,3.45-4.88v-2C1167.26,591.88,1166.09,593.68,1163.67,595.08Z"/><path class="cls-5" d="M1196.05,603.65a10.89,10.89,0,0,1-5.38-1.26h0l-38.5-22.23a4.18,4.18,0,0,1-2.38-3.56c0-1.64,1.17-3.26,3.2-4.43l36.86-21.29c3.66-2.11,9-2.31,12.23-.47l38.5,22.23a4.17,4.17,0,0,1,2.38,3.57c0,1.64-1.16,3.25-3.2,4.43l-36.86,21.28A14,14,0,0,1,1196.05,603.65Zm-4.56-2.66c2.69,1.55,7.45,1.34,10.6-.47L1239,579.23c1.52-.87,2.39-2,2.39-3a2.67,2.67,0,0,0-1.57-2.16l-38.5-22.23c-2.7-1.56-7.46-1.35-10.61.47l-36.86,21.28c-1.52.88-2.39,2-2.39,3a2.72,2.72,0,0,0,1.57,2.16Z"/><path class="cls-7" d="M1253.17,546V537h-23L1203,521.33c-3.63-2.1-10-1.83-14.17.59L1162.59,537h-23v9.42h0c-.1,1.42.69,2.79,2.43,3.8l47.79,27.59c3.63,2.1,10,1.83,14.17-.59l45.75-26.41C1252.14,549.45,1253.31,547.64,1253.17,546Z"/><path class="cls-77" d="M1253.17,546V537h-23L1203,521.33c-3.63-2.1-10-1.83-14.17.59L1162.59,537h-23v9.42h0c-.1,1.42.69,2.79,2.43,3.8l47.79,27.59c3.63,2.1,10,1.83,14.17-.59l45.75-26.41C1252.14,549.45,1253.31,547.64,1253.17,546Z"/><path class="cls-78" d="M1203,521.33a12.8,12.8,0,0,0-6.58-1.41v59.34a16.41,16.41,0,0,0,7.6-2l45.75-26.41c2.42-1.4,3.59-3.21,3.45-4.89V537h-23Z"/><path class="cls-7" d="M1189.8,568.43,1142,540.83c-3.63-2.09-3.17-5.75,1-8.18l45.75-26.41c4.2-2.42,10.54-2.68,14.17-.59l47.79,27.59c3.63,2.1,3.18,5.76-1,8.18L1204,567.84C1199.78,570.26,1193.43,570.52,1189.8,568.43Z"/><path class="cls-79" d="M1189.8,568.43,1142,540.83c-3.63-2.09-3.17-5.75,1-8.18l45.75-26.41c4.2-2.42,10.54-2.68,14.17-.59l47.79,27.59c3.63,2.1,3.18,5.76-1,8.18L1204,567.84C1199.78,570.26,1193.43,570.52,1189.8,568.43Z"/><path class="cls-74" d="M1191.08,562.33l-38.5-22.23c-2.93-1.69-2.56-4.64.82-6.59l36.86-21.29c3.38-2,8.49-2.16,11.41-.47L1240.18,534c2.92,1.69,2.56,4.64-.82,6.59l-36.87,21.28C1199.12,563.8,1194,564,1191.08,562.33Z"/><path class="cls-35" d="M1153.4,536.39l36.86-21.28c3.38-2,8.49-2.17,11.41-.48l38.51,22.23a4.45,4.45,0,0,1,1.57,1.45c.84-1.56.35-3.22-1.57-4.33l-38.51-22.23c-2.92-1.69-8-1.48-11.41.47l-36.86,21.29c-2.55,1.47-3.38,3.5-2.39,5.14A6.1,6.1,0,0,1,1153.4,536.39Z"/><path class="cls-80" d="M1191.41,568.43l-47.79-27.6c-3.63-2.09-4.5-5.17,1-8.18l45.75-26.41a16.16,16.16,0,0,1,7.17-2,16.57,16.57,0,0,0-8.78,2L1143,532.65c-4.19,2.43-4.65,6.09-1,8.18l47.79,27.6a13.21,13.21,0,0,0,7,1.39A12.19,12.19,0,0,1,1191.41,568.43Z"/><path class="cls-81" d="M1249.72,545.41,1204,571.82c-4.19,2.42-10.54,2.69-14.17.59L1142,544.82c-1.74-1-2.53-2.38-2.43-3.8h0v2h0c-.1,1.41.69,2.78,2.43,3.79l47.79,27.59c3.63,2.1,10,1.84,14.17-.58l45.75-26.42c2.42-1.4,3.59-3.21,3.45-4.89v-2C1253.31,542.2,1252.14,544,1249.72,545.41Z"/><path class="cls-5" d="M1024,703a10.89,10.89,0,0,1-5.38-1.26l-38.5-22.23a4.17,4.17,0,0,1-2.38-3.56c0-1.65,1.17-3.26,3.2-4.43l36.86-21.29c3.66-2.11,9-2.32,12.23-.47l38.5,22.23a4.17,4.17,0,0,1,2.38,3.57c0,1.64-1.16,3.25-3.2,4.42l-36.86,21.29A14,14,0,0,1,1024,703Zm.67-52.88a12.5,12.5,0,0,0-6.06,1.52L981.7,672.92c-1.52.88-2.39,2-2.39,3a2.7,2.7,0,0,0,1.57,2.16l38.5,22.23h0c2.7,1.55,7.46,1.34,10.61-.48l36.86-21.28c1.52-.88,2.39-2,2.39-3a2.7,2.7,0,0,0-1.57-2.17l-38.5-22.23A9.27,9.27,0,0,0,1024.62,650.12Z"/><path class="cls-7" d="M1081.07,645.31v-8.92h-23l-27.21-15.71c-3.63-2.1-10-1.84-14.17.59l-26.19,15.12h-23v9.42h0c-.1,1.42.69,2.79,2.43,3.8l47.79,27.59c3.63,2.1,10,1.83,14.17-.59l45.75-26.41C1080,648.8,1081.21,647,1081.07,645.31Z"/><path class="cls-82" d="M1081.07,645.31v-8.92h-23l-27.21-15.71c-3.63-2.1-10-1.84-14.17.59l-26.19,15.12h-23v9.42h0c-.1,1.42.69,2.79,2.43,3.8l47.79,27.59c3.63,2.1,10,1.83,14.17-.59l45.75-26.41C1080,648.8,1081.21,647,1081.07,645.31Z"/><path class="cls-83" d="M1030.85,620.68a12.82,12.82,0,0,0-6.58-1.41V678.6a16.28,16.28,0,0,0,7.6-2l45.75-26.41c2.42-1.4,3.59-3.21,3.45-4.89v-8.92h-23Z"/><path class="cls-7" d="M1017.7,667.77l-47.79-27.59c-3.63-2.09-3.17-5.76,1-8.18l45.75-26.41c4.2-2.42,10.54-2.69,14.17-.59l47.79,27.59c3.63,2.1,3.18,5.76-1,8.18l-45.75,26.42C1027.68,669.61,1021.33,669.87,1017.7,667.77Z"/><path class="cls-84" d="M1017.7,667.77l-47.79-27.59c-3.63-2.09-3.17-5.76,1-8.18l45.75-26.41c4.2-2.42,10.54-2.69,14.17-.59l47.79,27.59c3.63,2.1,3.18,5.76-1,8.18l-45.75,26.42C1027.68,669.61,1021.33,669.87,1017.7,667.77Z"/><path class="cls-74" d="M1019,661.68l-38.5-22.23c-2.93-1.69-2.56-4.64.82-6.59l36.86-21.29c3.38-2,8.49-2.16,11.41-.47l38.51,22.23c2.92,1.69,2.56,4.64-.82,6.59l-36.87,21.28C1027,663.15,1021.91,663.36,1019,661.68Z"/><path class="cls-35" d="M981.3,635.74l36.86-21.28c3.38-2,8.49-2.17,11.41-.48l38.51,22.23a4.24,4.24,0,0,1,1.56,1.45c.85-1.56.36-3.22-1.56-4.33l-38.51-22.23c-2.92-1.69-8-1.48-11.41.47L981.3,632.85c-2.55,1.47-3.38,3.51-2.39,5.15A6,6,0,0,1,981.3,635.74Z"/><path class="cls-85" d="M1019.31,667.77l-47.79-27.59c-3.63-2.09-4.5-5.17,1-8.18l45.75-26.41a16.16,16.16,0,0,1,7.17-2,16.57,16.57,0,0,0-8.78,2L970.93,632c-4.19,2.42-4.65,6.09-1,8.18l47.79,27.59a13.12,13.12,0,0,0,7,1.4A12.06,12.06,0,0,1,1019.31,667.77Z"/><path class="cls-86" d="M1077.62,644.76l-45.75,26.41c-4.19,2.42-10.54,2.68-14.17.59l-47.79-27.59c-1.74-1-2.53-2.38-2.43-3.8h0v2h0c-.1,1.42.69,2.79,2.43,3.8l47.79,27.59c3.63,2.1,10,1.84,14.17-.59l45.75-26.41c2.42-1.4,3.59-3.21,3.45-4.89v-2C1081.21,641.55,1080,643.36,1077.62,644.76Z"/><path class="cls-5" d="M1069.33,642.15a.58.58,0,0,1,0,1.09,2,2,0,0,1-1.89,0,.58.58,0,0,1,0-1.09A2.1,2.1,0,0,1,1069.33,642.15Z"/><path class="cls-5" d="M1072.27,640.46c.52.3.52.78,0,1.09a2.1,2.1,0,0,1-1.89,0c-.52-.31-.52-.79,0-1.09A2,2,0,0,1,1072.27,640.46Z"/><path class="cls-5" d="M1075.21,638.76a.58.58,0,0,1,0,1.09,2.1,2.1,0,0,1-1.89,0,.58.58,0,0,1,0-1.09A2.1,2.1,0,0,1,1075.21,638.76Z"/><path class="cls-5" d="M1155.83,592.24a.58.58,0,0,1,0,1.09,2.1,2.1,0,0,1-1.89,0,.58.58,0,0,1,0-1.09A2.1,2.1,0,0,1,1155.83,592.24Z"/><path class="cls-5" d="M1158.77,590.54a.58.58,0,0,1,0,1.09,2.1,2.1,0,0,1-1.89,0,.58.58,0,0,1,0-1.09A2.1,2.1,0,0,1,1158.77,590.54Z"/><path class="cls-5" d="M1161.71,588.84a.57.57,0,0,1,0,1.09,2.08,2.08,0,0,1-1.88,0,.57.57,0,0,1,0-1.09A2.08,2.08,0,0,1,1161.71,588.84Z"/><path class="cls-87" d="M1153.43,490.06c1.51.87,1.51,2.28,0,3.15a6,6,0,0,1-5.46,0c-1.51-.87-1.51-2.28,0-3.15A6,6,0,0,1,1153.43,490.06Z"/><path class="cls-88" d="M1161.93,485.15c1.51.87,1.51,2.28,0,3.15a6,6,0,0,1-5.46,0c-1.51-.87-1.51-2.28,0-3.15A6,6,0,0,1,1161.93,485.15Z"/><path class="cls-5" d="M1170.44,480.24c1.51.87,1.51,2.28,0,3.15a6,6,0,0,1-5.46,0c-1.51-.87-1.51-2.28,0-3.15A6,6,0,0,1,1170.44,480.24Z"/><path class="cls-5" d="M1241.82,542.51a.58.58,0,0,1,0,1.09,2.1,2.1,0,0,1-1.89,0,.58.58,0,0,1,0-1.09A2.1,2.1,0,0,1,1241.82,542.51Z"/><ellipse class="cls-5" cx="1243.82" cy="541.35" rx="1.34" ry="0.77"/><path class="cls-5" d="M1247.71,539.11a.58.58,0,0,1,0,1.09,2.1,2.1,0,0,1-1.89,0,.58.58,0,0,1,0-1.09A2.1,2.1,0,0,1,1247.71,539.11Z"/></g></g></svg>