<svg id="Layer_1" data-name="Layer 1" xmlns="http://www.w3.org/2000/svg" xmlns:xlink="http://www.w3.org/1999/xlink" viewBox="0 0 898 898"><defs><style>.cls-1{fill:url(#linear-gradient);}.cls-2{fill:url(#linear-gradient-2);}.cls-3{fill:url(#linear-gradient-3);}.cls-4{fill:url(#linear-gradient-4);}.cls-5{fill:url(#linear-gradient-5);}.cls-6,.cls-9{opacity:0.5;}.cls-6{fill:url(#linear-gradient-6);}.cls-7{fill:url(#linear-gradient-7);}.cls-8{fill:url(#linear-gradient-8);}.cls-10,.cls-9{fill:url(#linear-gradient-9);}.cls-11{fill:url(#linear-gradient-12);}.cls-12{fill:none;stroke:#ff0707;stroke-miterlimit:10;stroke-width:58px;}</style><linearGradient id="linear-gradient" x1="710.76" y1="983.85" x2="1320.53" y2="983.85" gradientUnits="userSpaceOnUse"><stop offset="0.28" stop-color="#168eea"/><stop offset="0.35" stop-color="#2287de"/><stop offset="0.48" stop-color="#4374be"/><stop offset="0.64" stop-color="#78558a"/><stop offset="0.84" stop-color="#c12b44"/><stop offset="1" stop-color="#ff0707"/></linearGradient><linearGradient id="linear-gradient-2" x1="878.8" y1="1367.27" x2="887.57" y2="1367.27" xlink:href="#linear-gradient"/><linearGradient id="linear-gradient-3" x1="608.2" y1="1226.29" x2="1065.64" y2="1226.29" xlink:href="#linear-gradient"/><linearGradient id="linear-gradient-4" x1="932.35" y1="817.16" x2="932.35" y2="817.16" xlink:href="#linear-gradient"/><linearGradient id="linear-gradient-5" x1="591.17" y1="1149.47" x2="591.17" y2="1149.47" xlink:href="#linear-gradient"/><linearGradient id="linear-gradient-6" x1="630.61" y1="1043.81" x2="633.85" y2="1043.81" xlink:href="#linear-gradient"/><linearGradient id="linear-gradient-7" x1="729.42" y1="1251.22" x2="729.42" y2="1251.22" xlink:href="#linear-gradient"/><linearGradient id="linear-gradient-8" x1="1078.7" y1="1149.7" x2="1078.7" y2="1149.7" xlink:href="#linear-gradient"/><linearGradient id="linear-gradient-9" x1="1064.01" y1="1136.65" x2="1067.26" y2="1136.65" xlink:href="#linear-gradient"/><linearGradient id="linear-gradient-12" x1="646.84" y1="1110.43" x2="1213.58" y2="1110.43" xlink:href="#linear-gradient"/></defs><path class="cls-1" d="M1320.53,975.8a44.65,44.65,0,0,1-12.68,31.33,42.7,42.7,0,0,1-30.63,13H749.51c-20.85,0-36.84,14.31-38.75,16.1l16.1-16.1,73.94-75.64a42.66,42.66,0,0,1,30.63-13h445.79C1301.15,931.49,1320.53,951.33,1320.53,975.8Z" transform="translate(-529.58 -641.61)"/><path class="cls-2" d="M887.57,1367.16a44.31,44.31,0,0,1-8.77,0Z" transform="translate(-529.58 -641.61)"/><path class="cls-3" d="M1065.64,1238.1a44.32,44.32,0,0,1-44.36,44.31l-286.7-.21a44.16,44.16,0,0,1-27-12.77l-76-75.85-23.44-23.42c18.19,18.12,34.88,22.52,44.1,23.42l369,.21A44.34,44.34,0,0,1,1065.64,1238.1Z" transform="translate(-529.58 -641.61)"/><path class="cls-4" d="M932.35,817.16" transform="translate(-529.58 -641.61)"/><path class="cls-5" d="M591.17,1149.47" transform="translate(-529.58 -641.61)"/><path class="cls-6" d="M633.85,1045.43c-1.13-1-2.21-2.11-3.24-3.24Z" transform="translate(-529.58 -641.61)"/><path class="cls-7" d="M729.42,1251.22" transform="translate(-529.58 -641.61)"/><path class="cls-8" d="M1078.7,1149.7" transform="translate(-529.58 -641.61)"/><path class="cls-9" d="M1067.26,1138.27A45.15,45.15,0,0,1,1064,1135Z" transform="translate(-529.58 -641.61)"/><path class="cls-10" d="M1067.26,1138.27A45.15,45.15,0,0,1,1064,1135Z" transform="translate(-529.58 -641.61)"/><path class="cls-10" d="M1067.26,1138.27A45.15,45.15,0,0,1,1064,1135Z" transform="translate(-529.58 -641.61)"/><path class="cls-11" d="M1213.51,1107.28a65,65,0,0,1-129.11,13.48l-426.83.4a10.73,10.73,0,0,1-10.73-10.73h0a10.73,10.73,0,0,1,10.73-10.73l427-.4a65,65,0,0,1,129,8Z" transform="translate(-529.58 -641.61)"/><circle class="cls-12" cx="449" cy="449" r="420"/></svg>