<svg id="Layer_1" data-name="Layer 1" xmlns="http://www.w3.org/2000/svg" viewBox="0 0 389 389"><defs><style>.cls-1{fill:#fff;stroke-width:8px;}.cls-1,.cls-2{stroke:#000;stroke-miterlimit:10;}.cls-2{stroke-width:2px;}</style></defs><rect class="cls-1" x="4" y="4" width="381" height="381"/><path d="M544.9,450.11a15.66,15.66,0,0,1-7.22-7.25,27.23,27.23,0,0,1-2.4-12.14v-8.26a26.5,26.5,0,0,1,2.42-12,15.77,15.77,0,0,1,7.23-7.18A27,27,0,0,1,557,400.9a29.53,29.53,0,0,1,7.49.89,20.31,20.31,0,0,1,6,2.66,18.21,18.21,0,0,1,4.64,4.47L570,413.51a16.89,16.89,0,0,0-5.77-4.61,16.31,16.31,0,0,0-7.09-1.52q-7.49,0-11.19,3.74t-3.69,11.34v8.26q0,7.69,3.72,11.51t11.16,3.82a18.78,18.78,0,0,0,7.47-1.45,18,18,0,0,0,6.07-4.4l4.49,4.45a18.05,18.05,0,0,1-4.64,4.39,20,20,0,0,1-6,2.62,30,30,0,0,1-7.49.86A27,27,0,0,1,544.9,450.11Z" transform="translate(-500 -136)"/><path d="M594.11,450a16.9,16.9,0,0,1-7.08-7.47,26.26,26.26,0,0,1-2.44-11.82v-8.16A25.73,25.73,0,0,1,587,410.83a16.82,16.82,0,0,1,7.08-7.39,25.83,25.83,0,0,1,22.34,0,16.82,16.82,0,0,1,7.08,7.39A25.73,25.73,0,0,1,626,422.51v8.31a25.82,25.82,0,0,1-2.44,11.72,17,17,0,0,1-7.08,7.42,25.65,25.65,0,0,1-22.34,0Zm21.3-7.9q3.6-4,3.6-11.24v-8.31q0-7.22-3.6-11.17t-10.18-4q-6.53,0-10.1,4t-3.58,11.17v8.31q0,7.24,3.58,11.24t10.1,4Q611.8,446.05,615.41,442.06Z" transform="translate(-500 -136)"/><path d="M648.06,450a16.9,16.9,0,0,1-7.08-7.47,26.26,26.26,0,0,1-2.44-11.82v-8.16A25.73,25.73,0,0,1,641,410.83a16.82,16.82,0,0,1,7.08-7.39,25.81,25.81,0,0,1,22.33,0,16.78,16.78,0,0,1,7.09,7.39,25.86,25.86,0,0,1,2.44,11.68v8.31a26,26,0,0,1-2.44,11.72,17,17,0,0,1-7.09,7.42,25.63,25.63,0,0,1-22.33,0Zm21.29-7.9q3.6-4,3.61-11.24v-8.31q0-7.22-3.61-11.17t-10.17-4q-6.52,0-10.1,4t-3.58,11.17v8.31q0,7.24,3.58,11.24t10.1,4Q665.75,446.05,669.35,442.06Z" transform="translate(-500 -136)"/><path d="M700.9,438.6a7.2,7.2,0,0,0,1.57,5,5.55,5.55,0,0,0,4.37,1.76h4.64v6.48h-5.8q-5.61,0-8.68-3.48t-3.06-9.81v-57h7Z" transform="translate(-500 -136)"/><path d="M730.67,450a16.9,16.9,0,0,1-7.08-7.47,26.26,26.26,0,0,1-2.44-11.82v-8.16a25.73,25.73,0,0,1,2.44-11.68,16.82,16.82,0,0,1,7.08-7.39,25.83,25.83,0,0,1,22.34,0,16.82,16.82,0,0,1,7.08,7.39,25.73,25.73,0,0,1,2.44,11.68v8.31a25.82,25.82,0,0,1-2.44,11.72A17,17,0,0,1,753,450a25.65,25.65,0,0,1-22.34,0Zm21.3-7.9q3.6-4,3.6-11.24v-8.31q0-7.22-3.6-11.17t-10.18-4q-6.52,0-10.1,4t-3.58,11.17v8.31q0,7.24,3.58,11.24t10.1,4Q748.36,446.05,752,442.06Z" transform="translate(-500 -136)"/><path d="M776.55,401.62h7V472.2h-7Zm12.28,48.9a12.19,12.19,0,0,1-6-6.6l.68-10.49a13.56,13.56,0,0,0,1.55,6.31,12.7,12.7,0,0,0,4.44,4.91,12.21,12.21,0,0,0,6.77,1.88q6.29,0,9.72-3.75t3.43-10.51V421.39q0-6.9-3.43-10.7t-9.72-3.8a12.28,12.28,0,0,0-6.77,1.86,12.64,12.64,0,0,0-4.44,4.81,13.06,13.06,0,0,0-1.55,6.19l-1-9.67a15.94,15.94,0,0,1,6.94-7,22.43,22.43,0,0,1,10.08-2.15,16.78,16.78,0,0,1,9.11,2.39,15,15,0,0,1,5.78,7,27.87,27.87,0,0,1,2,11.07v10.92a26.76,26.76,0,0,1-2,10.93,15,15,0,0,1-6,6.93,17.57,17.57,0,0,1-9.37,2.39A23.12,23.12,0,0,1,788.83,450.52Z" transform="translate(-500 -136)"/><path d="M826.53,401.62h22.62v6H826.53Zm8,47.06q-2.82-3.36-2.83-9.93V387h7v51.82a7.56,7.56,0,0,0,1.46,5,5.26,5.26,0,0,0,4.3,1.74h4.73V452h-5.7Q837.36,452,834.53,448.68Z" transform="translate(-500 -136)"/><text x="-500" y="-136"/><path class="cls-2" d="M803,182.8H664.6a78.6,78.6,0,0,0,0,157.2H803V320.35H716.57a78.55,78.55,0,0,0-1-118.75H803ZM723.55,261a59.38,59.38,0,1,1-59.38-59.37A59.39,59.39,0,0,1,723.55,261Z" transform="translate(-500 -136)"/></svg>